{"glyphs":{"0":{"ha":1149,"x_min":0,"x_max":0,"o":"m 0 -8 b 269 -278 0 -157 121 -278 l 740 -278 b 1010 -8 889 -278 1010 -157 l 1010 633 b 740 903 1010 782 889 903 l 269 903 b 0 633 121 903 0 782 z m 311 -29 b 249 33 276 -29 249 0 l 249 592 b 311 653 249 625 276 653 l 699 653 b 761 592 733 653 761 625 l 761 33 b 699 -29 761 0 733 -29 z "},"1":{"ha":482,"x_min":0,"x_max":0,"o":"m 343 901 l 31 901 l 0 653 l 94 653 l 94 -278 l 343 -278 z "},"2":{"ha":1149,"x_min":0,"x_max":0,"o":"m 21 903 l 0 653 l 699 653 b 761 592 732 653 761 625 l 761 500 b 699 438 761 465 732 438 l 269 438 b 0 168 121 438 0 317 l 0 -278 l 989 -278 l 989 -276 l 1010 -29 l 249 -29 l 249 126 b 311 189 249 161 276 189 l 740 189 b 1010 458 889 189 1010 310 l 1010 633 b 740 903 1010 782 889 903 z "},"3":{"ha":1149,"x_min":0,"x_max":0,"o":"m 1010 632 b 740 901 1010 781 889 901 l 21 901 l 0 653 l 699 653 b 761 590 733 653 761 625 l 761 499 b 699 436 761 464 733 436 l 344 436 l 324 188 l 699 188 b 761 125 733 188 761 160 l 761 33 b 699 -29 761 0 733 -29 l 21 -29 l 0 -278 l 740 -278 b 1010 -8 889 -278 1010 -157 l 1010 146 b 914 313 1010 200 1007 281 b 1010 478 1000 340 1010 425 z "},"4":{"ha":1149,"x_min":0,"x_max":0,"o":"m 761 901 l 761 394 l 249 394 l 249 901 l 0 901 l 0 146 l 761 146 l 761 -278 l 1010 -278 l 1010 901 z "},"5":{"ha":1147,"x_min":0,"x_max":0,"o":"m 989 653 l 1008 903 l 0 903 l 0 219 l 699 219 b 760 157 732 219 760 192 l 760 33 b 699 -29 760 0 732 -29 l 21 -29 l 0 -276 l 0 -278 l 740 -276 b 1008 -7 889 -276 1008 -156 l 1008 199 b 739 468 1008 347 889 468 l 249 468 l 249 653 z "},"6":{"ha":1149,"x_min":0,"x_max":0,"o":"m 989 653 l 1010 901 l 269 901 b 0 632 121 901 0 782 l 0 -7 b 269 -276 0 -156 121 -276 l 739 -278 b 1010 -8 889 -278 1010 -157 l 1010 168 b 740 438 1010 317 889 438 l 249 438 l 249 592 b 311 653 249 625 276 653 z m 761 33 b 699 -29 761 -1 733 -29 l 311 -29 b 249 33 276 -29 249 -1 l 249 189 l 699 189 b 761 126 733 189 761 161 z "},"7":{"ha":1147,"x_min":0,"x_max":0,"o":"m 21 901 l 0 653 l 760 653 l 760 499 b 699 436 760 464 732 436 l 565 436 b 296 167 417 436 296 315 l 296 -278 l 544 -278 l 544 125 b 607 188 544 160 572 188 l 739 188 b 1008 457 889 188 1008 308 l 1008 901 z "},"8":{"ha":1147,"x_min":0,"x_max":0,"o":"m 935 313 b 1008 457 999 340 1008 404 l 1008 632 b 739 901 1008 781 888 901 l 269 901 b 0 632 119 901 0 781 l 0 457 b 83 313 0 404 4 336 b 0 167 13 282 0 221 l 0 -8 b 269 -278 0 -157 119 -278 l 739 -278 b 1008 -8 888 -278 1008 -157 l 1008 167 b 935 313 1008 221 1006 279 z m 249 590 b 310 653 249 625 276 653 l 697 653 b 760 590 732 653 760 625 l 760 499 b 697 436 760 464 732 436 l 310 436 b 249 499 276 436 249 464 z m 760 33 b 697 -29 760 0 732 -29 l 310 -29 b 249 33 276 -29 249 0 l 249 125 b 310 188 249 160 276 188 l 699 188 b 760 125 732 188 760 160 z "},"9":{"ha":1149,"x_min":0,"x_max":0,"o":"m 21 -29 l 0 -278 l 740 -278 b 1010 -8 889 -278 1010 -157 l 1010 632 b 740 901 1010 781 889 901 l 271 901 b 0 632 121 901 0 782 l 0 457 b 269 188 0 308 121 188 l 761 188 l 761 33 b 699 -29 761 0 733 -29 z m 249 592 b 311 653 249 625 276 653 l 699 653 b 761 592 733 653 761 625 l 761 436 l 311 436 b 249 499 276 436 249 464 z "}," ":{"ha":694,"x_min":0,"x_max":0,"o":""}," ":{"ha":694,"x_min":0,"x_max":0,"o":""},"!":{"ha":389,"x_min":0,"x_max":0,"o":"m 229 140 l 250 900 l 0 900 l 21 140 z m 0 -29 l 0 -278 l 250 -278 l 250 -29 z "},"\"":{"ha":721,"x_min":0,"x_max":0,"o":"m 0 899 l 0 650 l 118 650 l 118 436 l 176 436 l 249 650 l 249 899 z m 333 899 l 333 650 l 451 650 l 451 436 l 510 436 l 582 650 l 582 899 z "},"#":{"ha":1556,"x_min":0,"x_max":0,"o":"m 1367 444 l 1417 603 l 1106 603 l 1197 900 l 1031 900 l 939 603 l 661 603 l 753 900 l 586 900 l 494 603 l 182 603 l 132 443 l 444 444 l 361 179 l 50 178 l 0 19 l 313 19 l 219 -278 l 386 -278 l 479 19 l 757 19 l 664 -278 l 831 -278 l 924 19 l 1235 19 l 1285 179 l 972 179 l 1056 444 z m 806 179 l 528 179 l 611 444 l 889 444 z "},"$":{"ha":1169,"x_min":0,"x_max":0,"o":"m 594 436 l 594 653 l 989 653 l 1010 901 l 594 901 l 594 1061 l 436 1061 l 436 901 l 269 901 b 0 632 121 901 0 781 l 0 457 b 269 188 0 308 121 188 l 436 188 l 436 -29 l 42 -29 l 21 -278 l 436 -278 l 436 -437 l 594 -437 l 594 -278 l 761 -278 b 1031 -8 910 -278 1031 -157 l 1031 167 b 761 436 1031 315 910 436 z m 311 436 b 249 499 276 436 249 464 l 249 590 b 311 653 249 625 276 653 l 436 653 l 436 436 z m 782 33 b 719 -29 782 -1 754 -29 l 594 -29 l 594 188 l 719 188 b 782 125 754 188 782 160 z "},"%":{"ha":1278,"x_min":0,"x_max":0,"o":"m 840 900 l 115 -278 l 303 -278 l 1028 900 z m 329 376 b 449 496 394 376 449 431 l 449 781 b 329 900 449 846 394 900 l 119 900 b 0 781 54 900 0 846 l 0 496 b 119 376 0 431 54 376 z m 111 763 b 139 790 111 778 124 790 l 310 790 b 338 763 325 790 338 778 l 338 515 b 310 488 338 500 325 488 l 139 488 b 111 515 124 488 111 500 z m 811 246 b 692 126 744 246 692 192 l 692 -158 b 811 -278 692 -224 744 -278 l 1019 -278 b 1139 -158 1085 -278 1139 -224 l 1139 126 b 1019 246 1139 192 1085 246 z m 1028 -139 b 1001 -167 1028 -154 1015 -167 l 829 -167 b 801 -139 814 -167 801 -154 l 801 108 b 829 136 801 124 814 136 l 1001 136 b 1028 108 1015 136 1028 124 z "},"&":{"ha":1313,"x_min":0,"x_max":0,"o":"m 1174 436 l 311 436 b 249 497 276 436 249 464 l 249 590 b 311 651 249 624 276 651 l 944 651 l 965 900 l 269 900 b 0 631 121 900 0 781 l 0 457 b 85 311 0 403 6 336 b 0 167 14 281 0 219 l 0 -8 b 269 -278 0 -157 121 -278 l 761 -278 l 761 -360 l 1010 -360 l 1010 188 l 1153 188 z m 311 -29 b 249 33 276 -29 249 -1 l 249 125 b 311 188 249 160 276 188 l 761 188 l 761 33 b 699 -29 761 -1 733 -29 z "},"'":{"ha":388,"x_min":0,"x_max":0,"o":"m 0 899 l 0 650 l 118 650 l 118 436 l 176 436 l 249 650 l 249 899 z "},"(":{"ha":517,"x_min":0,"x_max":0,"o":"m 378 1092 b 0 714 169 1092 0 922 l 0 -89 b 378 -467 0 -297 169 -467 l 378 -308 b 249 -178 307 -308 249 -250 l 249 804 b 378 933 249 875 307 933 z "},")":{"ha":517,"x_min":0,"x_max":0,"o":"m 0 933 b 129 804 71 933 129 875 l 129 -178 b 0 -308 129 -250 71 -308 l 0 -467 b 378 -89 208 -467 378 -297 l 378 714 b 0 1092 378 922 208 1092 z "},"*":{"ha":524,"x_min":0,"x_max":0,"o":"m 385 736 l 365 797 l 226 751 l 226 900 l 161 900 l 161 754 l 19 800 l 0 739 l 139 694 l 51 574 l 104 536 l 189 654 l 276 533 l 329 572 l 243 690 z "},"+":{"ha":814,"x_min":0,"x_max":0,"o":"m 675 390 l 418 390 l 418 649 l 258 649 l 258 390 l 0 390 l 0 231 l 258 231 l 258 -26 l 418 -26 l 418 231 l 675 231 z "},",":{"ha":388,"x_min":0,"x_max":0,"o":"m 0 -29 l 0 -278 l 118 -278 l 118 -492 l 176 -492 l 249 -278 l 249 -29 z "},"-":{"ha":813,"x_min":0,"x_max":0,"o":"m 674 390 l 0 390 l 0 231 l 674 231 z "},"­":{"ha":813,"x_min":0,"x_max":0,"o":"m 674 390 l 0 390 l 0 231 l 674 231 z "},".":{"ha":388,"x_min":0,"x_max":0,"o":"m 249 -29 l 0 -29 l 0 -278 l 249 -278 z "},"/":{"ha":674,"x_min":0,"x_max":0,"o":"m 535 900 l 368 900 l 0 -278 l 167 -278 z "},":":{"ha":388,"x_min":0,"x_max":0,"o":"m 0 -107 l 249 -107 l 249 142 l 0 142 z m 0 732 l 0 482 l 249 482 l 249 732 z "},";":{"ha":389,"x_min":0,"x_max":0,"o":"m 0 732 l 0 482 l 249 482 l 249 732 z m 1 -107 l 119 -107 l 119 -321 l 178 -321 l 250 -107 l 250 142 l 1 142 z "},"<":{"ha":754,"x_min":0,"x_max":0,"o":"m 310 314 l 615 469 l 543 611 l 0 314 l 543 15 l 615 157 z "},"=":{"ha":814,"x_min":0,"x_max":0,"o":"m 0 571 l 0 411 l 675 411 l 675 571 z m 0 54 l 675 54 l 675 213 l 0 213 z "},">":{"ha":754,"x_min":0,"x_max":0,"o":"m 306 314 l 0 157 l 72 15 l 615 314 l 72 611 l 0 469 z "},"?":{"ha":1149,"x_min":0,"x_max":0,"o":"m 21 900 l 0 651 l 699 651 b 761 590 733 651 761 624 l 761 540 b 699 478 761 506 733 478 l 543 478 b 274 208 394 478 274 357 l 274 140 l 524 140 l 524 167 b 585 229 524 201 551 229 l 740 229 b 1010 499 889 229 1010 350 l 1010 631 b 740 900 1010 781 889 900 z m 271 -278 l 519 -278 l 519 -29 l 271 -29 z "},"@":{"ha":1317,"x_min":0,"x_max":0,"o":"m 349 900 b 0 551 157 900 0 744 l 0 72 b 349 -278 0 -121 157 -278 l 1058 -278 l 1079 -114 l 349 -114 b 164 72 247 -114 164 -31 l 164 551 b 349 736 164 653 247 736 l 829 736 b 1014 551 931 736 1014 653 l 1014 174 l 782 174 l 782 440 b 674 549 782 500 733 549 l 400 549 l 392 449 l 657 449 b 682 424 671 449 682 438 l 682 361 l 483 361 b 375 253 424 361 375 313 l 375 182 b 483 74 375 122 424 74 l 1178 74 l 1178 551 b 829 900 1178 744 1021 900 z m 682 174 l 500 174 b 475 199 486 174 475 185 l 475 236 b 500 261 475 250 486 261 l 682 261 z "},"A":{"ha":1168,"x_min":0,"x_max":0,"o":"m 269 901 b 0 632 119 901 0 781 l 0 -278 l 249 -278 l 249 107 l 781 107 l 781 -278 l 1029 -278 l 1029 632 b 760 901 1029 781 908 901 z m 249 356 l 249 590 b 310 653 249 625 276 653 l 718 653 b 781 590 753 653 781 625 l 781 356 z "},"B":{"ha":1189,"x_min":0,"x_max":0,"o":"m 1050 632 b 781 901 1050 781 929 901 l 21 901 l 0 653 l 739 653 b 801 590 774 653 801 625 l 801 499 b 749 436 801 467 778 440 l 0 436 l 0 -278 l 781 -278 b 1050 -8 929 -278 1050 -157 l 1050 154 b 953 313 1050 213 1018 286 b 1050 485 1031 343 1050 417 z m 801 33 b 739 -29 801 -1 774 -29 l 249 -29 l 249 188 l 749 188 b 801 126 778 183 801 157 z "},"C":{"ha":1149,"x_min":0,"x_max":0,"o":"m 269 901 b 0 632 121 901 0 781 l 0 -8 b 269 -278 0 -157 121 -278 l 978 -278 l 999 -29 l 311 -29 b 249 33 276 -29 249 -1 l 249 590 b 311 653 249 625 276 653 l 699 653 b 761 590 733 653 761 625 l 761 390 l 1010 411 l 1010 632 b 740 901 1010 781 889 901 z "},"D":{"ha":1179,"x_min":0,"x_max":0,"o":"m 0 901 l 0 -278 l 771 -278 b 1040 -8 919 -278 1040 -157 l 1040 632 b 771 901 1040 781 919 901 z m 249 -29 l 249 653 l 729 653 b 792 590 764 653 792 625 l 792 33 b 729 -29 792 -1 764 -29 z "},"E":{"ha":1053,"x_min":0,"x_max":0,"o":"m 914 901 l 21 901 l 0 653 l 893 653 z m 249 188 l 893 188 l 914 436 l 0 436 l 0 -278 l 893 -278 l 914 -29 l 249 -29 z "},"F":{"ha":1053,"x_min":0,"x_max":0,"o":"m 914 901 l 21 901 l 0 653 l 893 653 z m 249 188 l 893 188 l 914 436 l 0 436 l 0 -278 l 249 -278 z "},"G":{"ha":1157,"x_min":0,"x_max":0,"o":"m 1018 436 l 476 436 l 456 188 l 769 188 l 769 -29 l 310 -29 b 249 33 276 -29 249 -1 l 249 590 b 310 653 249 625 276 653 l 988 653 l 1007 901 l 268 901 b 0 632 119 901 0 781 l 0 -8 b 268 -278 0 -157 119 -278 l 1018 -278 z "},"H":{"ha":1149,"x_min":0,"x_max":0,"o":"m 761 901 l 761 436 l 249 436 l 249 901 l 0 901 l 0 -278 l 249 -278 l 249 188 l 761 188 l 761 -278 l 1010 -278 l 1010 901 z "},"I":{"ha":388,"x_min":0,"x_max":0,"o":"m 249 -278 l 249 901 l 0 901 l 0 -278 z "},"J":{"ha":908,"x_min":0,"x_max":0,"o":"m 521 901 l 521 33 b 458 -29 521 -1 493 -29 l 21 -29 l 0 -278 l 500 -278 b 769 -8 649 -278 769 -157 l 769 901 z "},"K":{"ha":1190,"x_min":0,"x_max":0,"o":"m 954 -29 b 810 63 892 -29 836 6 l 763 163 b 646 324 731 231 701 300 b 743 461 699 356 718 406 l 792 561 b 935 653 817 617 874 653 l 1013 653 l 1033 901 l 878 901 b 590 718 754 901 642 829 l 525 578 b 372 436 486 496 489 442 l 249 436 l 249 901 l 0 901 l 0 -278 l 249 -278 l 249 188 l 379 188 b 543 46 497 182 506 128 l 608 -94 b 897 -278 661 -207 774 -278 l 1031 -278 l 1051 -29 z "},"L":{"ha":1031,"x_min":0,"x_max":0,"o":"m 249 -29 l 249 901 l 0 901 l 0 -278 l 871 -278 l 892 -29 z "},"M":{"ha":1515,"x_min":0,"x_max":0,"o":"m 1011 900 b 689 746 893 900 764 843 b 365 900 615 838 483 900 l 0 900 l 0 -278 l 249 -278 l 249 651 l 361 651 b 564 450 474 651 564 561 l 564 -278 l 813 -278 l 813 450 b 1015 651 813 561 903 651 l 1128 651 l 1128 -278 l 1376 -278 l 1376 900 z "},"N":{"ha":1168,"x_min":0,"x_max":0,"o":"m 781 900 l 781 689 b 218 900 639 850 426 900 l 0 900 l 0 -278 l 249 -278 l 249 651 l 281 651 b 781 106 568 651 781 414 l 781 -278 l 1029 -278 l 1029 900 z "},"O":{"ha":1189,"x_min":0,"x_max":0,"o":"m 0 -8 b 269 -278 0 -157 121 -278 l 781 -278 b 1050 -8 929 -278 1050 -157 l 1050 632 b 781 901 1050 781 929 901 l 269 901 b 0 632 121 901 0 781 z m 311 -29 b 249 33 276 -29 249 -1 l 249 590 b 311 653 249 625 276 653 l 739 653 b 801 590 774 653 801 625 l 801 33 b 739 -29 801 -1 774 -29 z "},"P":{"ha":1168,"x_min":0,"x_max":0,"o":"m 21 900 l 0 651 l 719 651 b 782 590 754 651 782 624 l 782 497 b 719 436 782 464 754 436 l 0 436 l 0 -278 l 249 -278 l 249 188 l 761 188 b 1031 457 910 188 1031 307 l 1031 631 b 761 900 1031 781 910 900 z "},"Q":{"ha":1190,"x_min":0,"x_max":0,"o":"m 269 901 b 0 632 121 901 0 781 l 0 -8 b 269 -278 0 -157 121 -278 l 356 -278 b 768 -587 406 -376 522 -587 l 889 -587 l 910 -339 l 811 -339 b 668 -279 750 -339 694 -335 l 668 -278 l 782 -278 b 1051 -8 931 -278 1051 -157 l 1051 632 b 782 901 1051 781 931 901 z m 803 33 b 740 -29 803 -1 775 -29 l 311 -29 b 249 33 278 -29 249 -1 l 249 590 b 311 653 249 625 278 653 l 740 653 b 803 590 775 653 803 625 z "},"R":{"ha":1168,"x_min":0,"x_max":0,"o":"m 1031 632 b 761 901 1031 781 910 901 l 21 901 l 0 653 l 719 653 b 782 590 754 653 782 625 l 782 499 b 719 436 782 464 754 436 l 0 436 l 0 -278 l 249 -278 l 249 185 b 521 46 474 185 486 122 l 588 -94 b 875 -278 639 -207 751 -278 l 1010 -278 l 1031 -29 l 932 -29 b 789 63 871 -29 814 6 l 781 79 b 693 188 767 107 740 175 l 761 188 b 1031 457 910 188 1031 308 z "},"S":{"ha":1168,"x_min":0,"x_max":0,"o":"m 988 653 l 1008 901 l 269 901 b 0 632 119 901 0 781 l 0 457 b 269 188 0 308 119 188 l 718 188 b 781 125 753 188 781 160 l 781 33 b 718 -29 781 -1 753 -29 l 40 -29 l 19 -278 l 760 -278 b 1029 -8 908 -278 1029 -157 l 1029 167 b 760 436 1029 315 908 436 l 310 436 b 249 499 276 436 249 464 l 249 590 b 310 653 249 625 276 653 z "},"T":{"ha":1169,"x_min":0,"x_max":0,"o":"m 1031 900 l 21 900 l 0 651 l 392 651 l 392 -278 l 640 -278 l 640 651 l 1010 651 z "},"U":{"ha":1168,"x_min":0,"x_max":0,"o":"m 0 900 l 0 -8 b 269 -278 0 -157 121 -278 l 760 -278 b 1029 -8 910 -278 1029 -157 l 1029 900 l 781 900 l 781 33 b 719 -29 781 -1 753 -29 l 311 -29 b 249 33 276 -29 249 -1 l 249 900 z "},"V":{"ha":1169,"x_min":0,"x_max":0,"o":"m 0 -278 l 410 -278 b 1031 342 753 -278 1031 0 l 1031 900 l 782 900 l 782 378 b 374 -29 782 153 599 -29 l 249 -29 l 249 900 l 0 900 z "},"W":{"ha":1514,"x_min":0,"x_max":0,"o":"m 1010 -278 l 1375 -278 l 1375 900 l 1126 900 l 1126 -29 l 1014 -29 b 811 174 903 -29 811 61 l 811 900 l 563 900 l 563 174 b 361 -29 563 61 472 -29 l 249 -29 l 249 900 l 0 900 l 0 -278 l 364 -278 b 688 -124 483 -278 614 -214 b 1010 -278 763 -221 892 -278 z "},"X":{"ha":1158,"x_min":0,"x_max":0,"o":"m 1019 900 l 771 900 l 771 497 b 708 436 771 464 743 436 l 311 436 b 249 497 276 436 249 464 l 249 900 l 0 900 l 0 497 b 104 311 0 444 29 351 b 0 125 7 274 0 178 l 0 -278 l 249 -278 l 249 125 b 311 188 249 160 276 188 l 708 188 b 771 125 743 188 771 160 l 771 -278 l 1019 -278 l 1019 125 b 915 311 1019 178 1019 272 b 1019 497 1007 346 1019 444 z "},"Y":{"ha":1169,"x_min":0,"x_max":0,"o":"m 782 900 l 782 497 b 719 436 782 464 754 436 l 311 436 b 249 497 278 436 249 464 l 249 900 l 0 900 l 0 457 b 269 188 0 307 121 188 l 392 188 l 392 -278 l 640 -278 l 640 188 l 761 188 b 1031 457 910 188 1031 307 l 1031 900 z "},"Z":{"ha":1179,"x_min":0,"x_max":0,"o":"m 1040 901 l 31 901 l 10 653 l 792 653 b 642 475 792 565 728 490 l 350 421 b 0 4 147 385 0 210 l 0 -278 l 1008 -278 l 1029 -29 l 249 -29 l 249 0 b 397 178 249 88 311 163 l 690 231 b 1040 649 892 267 1040 443 z "},"[":{"ha":517,"x_min":0,"x_max":0,"o":"m 378 933 l 378 1092 l 0 1092 l 0 -467 l 378 -467 l 378 -308 l 249 -308 l 249 933 z "},"\\":{"ha":674,"x_min":0,"x_max":0,"o":"m 0 900 l 368 -278 l 535 -278 l 167 900 z "},"]":{"ha":517,"x_min":0,"x_max":0,"o":"m 0 933 l 129 933 l 129 -308 l 0 -308 l 0 -467 l 378 -467 l 378 1092 l 0 1092 z "},"^":{"ha":671,"x_min":0,"x_max":0,"o":"m 532 815 l 267 1097 l 0 815 l 115 707 l 265 867 l 417 707 z "},"_":{"ha":1113,"x_min":0,"x_max":0,"o":"m 974 -118 l 0 -118 l 0 -278 l 974 -278 z "},"`":{"ha":542,"x_min":0,"x_max":0,"o":"m 115 1108 l 0 1000 l 286 696 l 403 804 z "},"a":{"ha":1168,"x_min":0,"x_max":0,"o":"m 269 900 b 0 631 119 900 0 779 l 0 -278 l 249 -278 l 249 107 l 781 107 l 781 -278 l 1029 -278 l 1029 631 b 760 900 1029 779 908 900 z m 249 356 l 249 590 b 310 651 249 624 276 651 l 718 651 b 781 590 753 651 781 624 l 781 356 z "},"b":{"ha":1189,"x_min":0,"x_max":0,"o":"m 1050 631 b 781 900 1050 779 929 900 l 0 901 l 0 -278 l 781 -278 b 1050 -8 929 -278 1050 -157 l 1050 154 b 953 311 1050 213 1018 286 b 1050 485 1031 343 1050 415 z m 249 651 l 739 651 b 801 589 774 651 801 624 l 801 497 b 749 436 801 467 778 440 l 249 436 z m 801 33 b 739 -29 801 -1 774 -29 l 249 -29 l 249 186 l 749 186 b 801 125 778 182 801 157 z "},"c":{"ha":1190,"x_min":0,"x_max":0,"o":"m 1051 514 l 1051 632 b 782 901 1051 781 931 901 l 269 901 b 0 632 121 901 0 781 l 0 -8 b 269 -278 0 -157 121 -278 l 782 -278 b 1051 -8 931 -278 1051 -157 l 1051 150 l 803 129 l 803 33 b 740 -29 803 -1 775 -29 l 311 -29 b 249 33 276 -29 249 -1 l 249 590 b 311 653 249 625 276 653 l 740 653 b 803 590 775 653 803 625 l 803 493 z "},"d":{"ha":1179,"x_min":0,"x_max":0,"o":"m 0 901 l 0 -278 l 771 -278 b 1040 -8 919 -278 1040 -157 l 1040 632 b 771 901 1040 781 919 901 z m 249 -29 l 249 653 l 729 653 b 792 590 764 653 792 625 l 792 33 b 729 -29 792 -1 764 -29 z "},"e":{"ha":1053,"x_min":0,"x_max":0,"o":"m 249 188 l 893 188 l 914 436 l 249 436 l 249 653 l 893 653 l 914 901 l 0 901 l 0 -278 l 893 -278 l 914 -29 l 249 -29 z "},"f":{"ha":1053,"x_min":0,"x_max":0,"o":"m 249 436 l 249 653 l 893 653 l 914 901 l 0 901 l 0 -278 l 249 -278 l 249 188 l 893 188 l 914 436 z "},"g":{"ha":1157,"x_min":0,"x_max":0,"o":"m 1018 436 l 476 436 l 456 188 l 769 188 l 769 -29 l 310 -29 b 249 33 276 -29 249 -1 l 249 590 b 310 653 249 625 276 653 l 988 653 l 1007 901 l 268 901 b 0 632 119 901 0 781 l 0 -8 b 268 -278 0 -157 119 -278 l 1018 -278 z "},"h":{"ha":1149,"x_min":0,"x_max":0,"o":"m 761 900 l 761 436 l 249 436 l 249 900 l 0 900 l 0 -278 l 249 -278 l 249 186 l 761 186 l 761 -278 l 1010 -278 l 1010 900 z "},"i":{"ha":388,"x_min":0,"x_max":0,"o":"m 249 -278 l 249 900 l 0 900 l 0 -278 z "},"j":{"ha":908,"x_min":0,"x_max":0,"o":"m 521 901 l 521 32 b 458 -29 521 -1 493 -29 l 21 -29 l 0 -278 l 500 -278 b 769 -8 649 -278 769 -157 l 769 901 z "},"k":{"ha":1190,"x_min":0,"x_max":0,"o":"m 954 -29 b 810 61 892 -29 836 6 l 763 161 b 646 324 731 229 701 299 b 743 461 699 356 718 406 l 792 561 b 935 653 817 617 874 653 l 1013 653 l 1033 901 l 878 901 b 590 717 754 901 642 829 l 525 576 b 372 436 486 496 489 442 l 249 436 l 249 901 l 0 901 l 0 -278 l 249 -278 l 249 186 l 379 186 b 543 46 497 182 506 128 l 608 -94 b 897 -278 661 -207 774 -278 l 1031 -278 l 1051 -29 z "},"l":{"ha":1031,"x_min":0,"x_max":0,"o":"m 249 -29 l 249 901 l 0 901 l 0 -278 l 871 -278 l 892 -29 z "},"m":{"ha":1515,"x_min":0,"x_max":0,"o":"m 1011 900 b 689 746 893 900 764 843 b 365 900 615 836 483 900 l 0 900 l 0 -278 l 249 -278 l 249 651 l 361 651 b 564 450 474 651 564 561 l 564 -278 l 813 -278 l 813 450 b 1015 651 813 561 903 651 l 1128 651 l 1128 -278 l 1376 -278 l 1376 900 z "},"n":{"ha":1168,"x_min":0,"x_max":0,"o":"m 781 900 l 781 689 b 218 900 639 850 426 900 l 0 900 l 0 -278 l 249 -278 l 249 651 l 281 651 b 781 106 568 651 781 414 l 781 -278 l 1029 -278 l 1029 900 z "},"o":{"ha":1189,"x_min":0,"x_max":0,"o":"m 0 -8 b 269 -278 0 -158 121 -278 l 781 -278 b 1050 -8 929 -278 1050 -158 l 1050 632 b 781 901 1050 781 929 901 l 269 901 b 0 632 121 901 0 781 z m 311 -29 b 249 32 276 -29 249 -1 l 249 590 b 311 653 249 625 276 653 l 739 653 b 801 590 774 653 801 625 l 801 32 b 739 -29 801 -1 774 -29 z "},"p":{"ha":1169,"x_min":0,"x_max":0,"o":"m 0 900 l 0 -278 l 249 -278 l 249 186 l 761 186 b 1031 456 910 186 1031 307 l 1031 631 b 761 900 1031 779 910 900 z m 782 497 b 719 435 782 463 754 435 l 249 435 l 249 651 l 719 651 b 782 589 754 651 782 624 z "},"q":{"ha":1189,"x_min":0,"x_max":0,"o":"m 269 901 b 0 632 121 901 0 781 l 0 -8 b 269 -278 0 -158 121 -278 l 401 -278 l 401 -508 l 650 -499 l 650 -278 l 781 -278 b 1050 -8 931 -278 1050 -158 l 1050 632 b 781 901 1050 781 931 901 z m 801 32 b 740 -29 801 -1 774 -29 l 650 -29 l 650 146 l 401 125 l 401 -29 l 311 -29 b 249 32 276 -29 249 -1 l 249 590 b 311 653 249 625 276 653 l 740 653 b 801 590 774 653 801 625 z "},"r":{"ha":1168,"x_min":0,"x_max":0,"o":"m 1029 632 b 760 901 1029 781 910 901 l 0 901 l 0 -278 l 249 -278 l 249 185 b 521 46 472 185 485 122 l 586 -94 b 875 -278 639 -207 751 -278 l 1008 -278 l 1029 -29 l 932 -29 b 788 61 869 -29 814 6 l 781 78 b 693 188 767 107 740 175 l 760 188 b 1029 457 910 188 1029 308 z m 249 436 l 249 653 l 719 653 b 781 590 753 653 781 625 l 781 499 b 719 436 781 464 753 436 z "},"s":{"ha":1168,"x_min":0,"x_max":0,"o":"m 988 653 l 1008 903 l 269 903 b 0 633 119 903 0 782 l 0 458 b 269 189 0 310 119 189 l 718 189 b 781 126 753 189 781 161 l 781 33 b 718 -28 781 0 753 -28 l 40 -28 l 19 -276 l 19 -278 l 760 -276 b 1029 -7 908 -276 1029 -156 l 1029 168 b 760 438 1029 317 908 438 l 310 438 b 249 500 276 438 249 465 l 249 592 b 310 653 249 625 276 653 z "},"t":{"ha":1169,"x_min":0,"x_max":0,"o":"m 1031 901 l 21 901 l 0 653 l 392 653 l 392 -278 l 640 -278 l 640 653 l 1010 653 z "},"u":{"ha":1168,"x_min":0,"x_max":0,"o":"m 0 901 l 0 -8 b 269 -278 0 -157 121 -278 l 760 -278 b 1029 -8 910 -278 1029 -157 l 1029 901 l 781 901 l 781 33 b 719 -28 781 0 753 -28 l 311 -28 b 249 33 276 -28 249 0 l 249 901 z "},"v":{"ha":1169,"x_min":0,"x_max":0,"o":"m 0 -278 l 410 -278 b 1031 343 753 -278 1031 0 l 1031 901 l 782 901 l 782 379 b 374 -28 782 154 599 -28 l 249 -28 l 249 901 l 0 901 z "},"w":{"ha":1514,"x_min":0,"x_max":0,"o":"m 1010 -278 l 1375 -278 l 1375 901 l 1126 901 l 1126 -28 l 1014 -28 b 811 174 903 -28 811 63 l 811 901 l 563 901 l 563 174 b 361 -28 563 63 472 -28 l 249 -28 l 249 901 l 0 901 l 0 -278 l 364 -278 b 688 -122 483 -278 614 -214 b 1010 -278 763 -219 892 -278 z "},"x":{"ha":1158,"x_min":0,"x_max":0,"o":"m 1019 901 l 771 901 l 771 499 b 708 436 771 464 743 436 l 311 436 b 249 499 276 436 249 464 l 249 901 l 0 901 l 0 499 b 104 313 0 446 29 353 b 0 126 7 274 0 179 l 0 -278 l 249 -278 l 249 126 b 311 188 249 160 276 188 l 708 188 b 771 126 743 188 771 160 l 771 -278 l 1019 -278 l 1019 126 b 915 313 1019 179 1019 272 b 1019 499 1007 347 1019 446 z "},"y":{"ha":1169,"x_min":0,"x_max":0,"o":"m 782 901 l 782 499 b 719 436 782 464 754 436 l 311 436 b 249 499 278 436 249 464 l 249 901 l 0 901 l 0 457 b 269 188 0 308 121 188 l 392 188 l 392 -278 l 640 -278 l 640 188 l 761 188 b 1031 457 910 188 1031 308 l 1031 901 z "},"z":{"ha":1179,"x_min":0,"x_max":0,"o":"m 1040 903 l 31 903 l 10 654 l 792 654 b 642 476 792 567 728 492 l 350 422 b 0 4 147 386 0 210 l 0 -278 l 1008 -278 l 1029 -28 l 249 -28 l 249 0 b 397 178 249 88 311 163 l 690 232 b 1040 650 892 268 1040 444 z "},"{":{"ha":626,"x_min":0,"x_max":0,"o":"m 192 313 b 357 576 293 361 357 464 l 357 804 b 488 933 357 875 415 933 l 488 1092 b 219 982 382 1092 288 1050 b 108 714 151 913 108 818 l 108 501 b 0 392 108 442 60 392 l 0 233 b 108 124 60 233 108 185 l 108 -89 b 488 -467 108 -297 278 -467 l 488 -308 b 396 -269 451 -308 419 -293 b 357 -178 372 -246 357 -214 l 357 50 b 192 313 357 161 293 264 z "},"|":{"ha":299,"x_min":0,"x_max":0,"o":"m 0 901 l 0 -278 l 160 -278 l 160 901 z "},"}":{"ha":626,"x_min":0,"x_max":0,"o":"m 294 313 b 129 50 193 264 129 161 l 129 -178 b 92 -269 129 -214 114 -246 b 0 -308 68 -293 35 -308 l 0 -467 b 378 -89 208 -467 378 -297 l 378 124 b 488 233 378 185 426 233 l 488 392 b 378 501 426 392 378 442 l 378 714 b 267 982 378 818 336 913 b 0 1092 199 1050 104 1092 l 0 933 b 129 804 71 933 129 875 l 129 576 b 294 313 129 464 193 361 z "},"~":{"ha":663,"x_min":0,"x_max":0,"o":"m 346 208 b 524 364 435 208 507 271 l 383 389 b 346 351 379 365 365 351 b 306 371 333 351 326 354 b 181 418 281 389 242 418 b 0 271 69 418 14 322 l 136 233 b 181 275 136 233 150 275 b 221 256 193 275 200 272 b 346 208 247 238 285 208 z "},"¡":{"ha":388,"x_min":0,"x_max":0,"o":"m 21 8 l 0 -751 l 249 -751 l 228 8 z m 249 178 l 249 426 l 0 426 l 0 178 z "},"¢":{"ha":1149,"x_min":0,"x_max":0,"o":"m 1010 411 l 1010 632 b 740 901 1010 781 889 901 l 592 901 l 592 1061 l 433 1061 l 433 901 l 269 901 b 0 632 121 901 0 781 l 0 -8 b 269 -278 0 -157 121 -278 l 433 -278 l 433 -437 l 592 -437 l 592 -278 l 978 -278 l 999 -29 l 592 -29 l 592 653 l 699 653 b 761 590 733 653 761 625 l 761 390 z m 433 -29 l 311 -29 b 249 33 276 -29 249 -1 l 249 590 b 311 653 249 625 276 653 l 433 653 z "},"£":{"ha":1215,"x_min":0,"x_max":0,"o":"m 433 -29 l 433 232 l 749 232 l 749 392 l 433 392 l 433 590 b 496 653 433 625 461 653 l 682 653 l 703 901 l 454 901 b 185 632 306 901 185 781 l 185 392 l 0 392 l 0 232 l 185 232 l 185 -278 l 1056 -278 l 1076 -29 z "},"¤":{"ha":728,"x_min":0,"x_max":0,"o":"m 542 313 b 517 422 542 351 533 389 l 589 494 l 476 607 l 404 535 b 294 560 371 550 333 560 b 185 535 256 560 218 550 l 113 607 l 0 494 l 72 422 b 47 313 56 389 47 351 b 72 203 47 272 56 236 l 0 129 l 113 17 l 185 90 b 294 64 218 74 256 64 b 404 90 333 64 371 74 l 476 17 l 589 129 l 517 203 b 542 313 533 236 542 272 z m 386 313 b 294 219 386 261 346 219 b 203 313 243 219 203 261 b 294 404 203 363 243 404 b 386 313 346 404 386 363 z "},"¥":{"ha":1169,"x_min":0,"x_max":0,"o":"m 782 901 l 782 499 b 719 436 782 464 754 436 l 311 436 b 249 499 276 436 249 464 l 249 901 l 0 901 l 0 457 b 269 188 0 308 121 188 l 392 188 l 392 150 l 140 150 l 140 -10 l 392 -10 l 392 -40 l 140 -40 l 140 -200 l 392 -200 l 392 -278 l 640 -278 l 640 -200 l 890 -200 l 890 -40 l 640 -40 l 640 -10 l 890 -10 l 890 150 l 640 150 l 640 188 l 761 188 b 1031 457 910 188 1031 308 l 1031 901 z "},"¦":{"ha":299,"x_min":0,"x_max":0,"o":"m 160 900 l 0 900 l 0 463 l 160 463 z m 0 160 l 0 -278 l 160 -278 l 160 160 z "},"§":{"ha":879,"x_min":0,"x_max":0,"o":"m 740 375 b 715 469 740 408 732 442 b 547 568 682 528 619 568 l 225 568 b 181 613 200 568 181 588 l 181 678 b 225 722 181 703 200 722 l 711 722 l 725 901 l 194 901 b 1 708 89 901 1 814 l 1 582 b 32 481 1 544 13 510 b 0 375 11 450 0 414 l 0 249 b 25 154 0 215 10 182 b 193 56 58 96 121 56 l 519 56 b 560 11 542 54 560 35 l 560 -54 b 515 -100 560 -79 540 -100 l 31 -100 l 15 -278 l 546 -278 b 739 -85 651 -278 739 -190 l 739 42 b 708 143 739 79 728 114 b 740 249 729 174 740 210 z m 518 389 b 563 344 542 389 563 369 l 563 278 b 524 235 563 256 546 238 l 224 235 b 178 279 199 235 178 254 l 178 344 b 224 389 178 369 199 389 z "},"¨":{"ha":525,"x_min":0,"x_max":0,"o":"m 60 982 b 0 922 26 982 0 956 l 0 881 b 60 822 0 849 26 822 l 101 822 b 160 881 133 822 160 849 l 160 922 b 101 982 160 956 133 982 z m 286 982 b 226 922 253 982 226 956 l 226 881 b 286 822 226 849 253 822 l 328 822 b 386 881 360 822 386 849 l 386 922 b 328 982 386 956 360 982 z "},"©":{"ha":1318,"x_min":0,"x_max":0,"o":"m 457 628 b 313 483 378 628 313 563 l 313 139 b 457 -6 313 60 378 -6 l 838 -6 l 849 128 l 479 128 b 446 161 461 128 446 143 l 446 461 b 479 494 446 479 461 494 l 688 494 b 721 461 706 494 721 479 l 721 353 l 854 364 l 854 483 b 710 628 854 563 790 628 z m 350 900 b 0 551 157 900 0 744 l 0 72 b 350 -278 0 -121 157 -278 l 829 -278 b 1179 72 1022 -278 1179 -121 l 1179 551 b 829 900 1179 744 1022 900 z m 1014 72 b 829 -114 1014 -31 932 -114 l 350 -114 b 165 72 247 -114 165 -31 l 165 551 b 350 736 165 653 247 736 l 829 736 b 1014 551 932 736 1014 653 z "},"ª":{"ha":390,"x_min":0,"x_max":0,"o":"m 251 683 l 235 683 l 235 838 b 172 900 235 872 207 900 l 14 900 l 10 842 l 163 842 b 176 828 171 842 176 836 l 176 792 l 63 792 b 0 729 28 792 0 764 l 0 688 b 63 625 0 653 28 625 l 247 625 z m 72 683 b 57 697 64 683 57 689 l 57 719 b 72 733 57 728 64 733 l 176 733 l 176 683 z "},"«":{"ha":906,"x_min":0,"x_max":0,"o":"m 407 496 l 294 608 l 0 314 l 294 18 l 407 131 l 225 314 z m 767 496 l 654 608 l 360 314 l 654 18 l 767 131 l 585 314 z "},"¬":{"ha":813,"x_min":0,"x_max":0,"o":"m 674 476 l 0 476 l 0 318 l 515 318 l 515 144 l 674 144 z "},"®":{"ha":729,"x_min":0,"x_max":0,"o":"m 164 764 l 158 697 l 351 697 b 368 681 361 697 368 690 l 368 656 b 351 639 368 647 361 639 l 158 639 l 158 447 l 225 447 l 225 572 b 299 535 286 572 289 556 l 317 497 b 393 447 331 467 360 447 l 429 447 l 435 514 l 408 514 b 371 539 392 514 378 524 l 368 543 b 344 572 364 551 357 569 l 363 572 b 435 644 403 572 435 606 l 435 692 b 363 764 435 732 403 764 z m 175 900 b 0 726 79 900 0 822 l 0 486 b 175 311 0 390 79 311 l 415 311 b 590 486 511 311 590 390 l 590 726 b 415 900 590 822 511 900 z m 508 486 b 415 393 508 435 467 393 l 175 393 b 83 486 125 393 83 435 l 83 726 b 175 818 83 776 125 818 l 415 818 b 508 726 467 818 508 776 z "},"¯":{"ha":557,"x_min":0,"x_max":0,"o":"m 418 982 l 0 982 l 0 822 l 418 822 z "},"°":{"ha":556,"x_min":0,"x_max":0,"o":"m 192 694 l 225 694 b 417 886 331 694 417 781 l 417 919 b 225 1110 417 1025 331 1110 l 192 1110 b 0 919 86 1110 0 1025 l 0 886 b 192 694 0 781 86 694 z m 192 965 l 225 965 b 272 919 250 965 272 944 l 272 886 b 225 839 272 860 250 839 l 192 839 b 144 886 165 839 144 860 l 144 919 b 192 965 144 944 165 965 z "},"±":{"ha":814,"x_min":0,"x_max":0,"o":"m 675 515 l 418 515 l 418 774 l 258 774 l 258 515 l 0 515 l 0 356 l 258 356 l 258 99 l 418 99 l 418 356 l 675 356 z m 675 6 l 0 6 l 0 -154 l 675 -154 z "},"²":{"ha":375,"x_min":0,"x_max":0,"o":"m 6 900 l 0 842 l 164 842 b 178 828 171 842 178 836 l 178 806 b 164 792 178 799 171 792 l 64 792 b 0 729 29 792 0 764 l 0 625 l 231 625 l 236 683 l 58 683 l 58 719 b 74 733 58 728 65 733 l 174 733 b 236 796 208 733 236 761 l 236 838 b 174 900 236 872 208 900 z "},"³":{"ha":375,"x_min":0,"x_max":0,"o":"m 236 838 b 172 900 236 872 207 900 l 6 900 l 0 842 l 164 842 b 178 828 171 842 178 835 l 178 806 b 164 792 178 799 171 792 l 81 792 l 76 733 l 164 733 b 178 719 171 733 178 726 l 178 697 b 164 683 178 690 171 683 l 6 683 l 0 625 l 172 625 b 236 688 207 625 236 653 l 236 724 b 214 763 236 736 235 756 b 236 801 233 769 236 789 z "},"´":{"ha":542,"x_min":0,"x_max":0,"o":"m 286 1108 l 0 804 l 115 696 l 403 1000 z "},"µ":{"ha":1168,"x_min":0,"x_max":0,"o":"m 0 -417 l 249 -417 l 249 -276 b 269 -278 256 -278 263 -278 l 760 -278 b 951 -199 835 -278 899 -251 b 1029 -8 1003 -146 1029 -82 l 1029 901 l 781 901 l 781 33 b 763 -10 781 17 775 3 b 719 -28 750 -22 736 -28 l 311 -28 b 267 -10 293 -28 279 -22 b 249 33 254 3 249 17 l 249 901 l 0 901 z "},"¶":{"ha":1092,"x_min":0,"x_max":0,"o":"m 953 900 l 246 900 b 0 656 110 900 0 790 b 246 411 0 521 110 411 l 438 411 l 438 -278 l 596 -278 l 596 742 l 675 742 l 675 -278 l 833 -278 l 833 742 l 953 742 z "},"·":{"ha":486,"x_min":0,"x_max":0,"o":"m 211 578 l 0 578 l 0 367 l 211 367 z "},"∙":{"ha":486,"x_min":0,"x_max":0,"o":"m 211 578 l 0 578 l 0 367 l 211 367 z "},"¸":{"ha":422,"x_min":0,"x_max":0,"o":"m 283 -492 l 283 -414 b 206 -335 283 -369 249 -335 l 164 -335 l 164 -264 l 57 -264 l 57 -429 l 178 -429 b 189 -440 183 -429 189 -435 l 189 -464 b 178 -475 189 -469 183 -475 l 0 -475 l 0 -569 l 206 -569 b 283 -492 249 -569 283 -535 z "},"¹":{"ha":219,"x_min":0,"x_max":0,"o":"m 81 900 l 7 900 l 0 842 l 22 842 l 22 625 l 81 625 z "},"º":{"ha":374,"x_min":0,"x_max":0,"o":"m 0 688 b 63 625 0 653 28 625 l 172 625 b 235 688 207 625 235 653 l 235 838 b 172 900 235 872 207 900 l 63 900 b 0 838 28 900 0 872 z m 72 683 b 58 697 64 683 58 690 l 58 828 b 72 842 58 836 64 842 l 163 842 b 178 828 171 842 178 836 l 178 697 b 163 683 178 690 171 683 z "},"»":{"ha":906,"x_min":0,"x_max":0,"o":"m 360 496 l 542 314 l 360 131 l 472 18 l 767 314 l 472 608 z m 0 496 l 182 314 l 0 131 l 113 18 l 407 314 l 113 608 z "},"¼":{"ha":1188,"x_min":0,"x_max":0,"o":"m 725 900 l 0 -278 l 186 -278 l 911 900 z m 939 246 l 939 21 l 711 21 l 711 246 l 601 246 l 601 -89 l 939 -89 l 939 -278 l 1049 -278 l 1049 246 z m 56 376 l 167 376 l 167 900 l 28 900 l 14 789 l 56 789 z "},"½":{"ha":1185,"x_min":0,"x_max":0,"o":"m 926 -71 b 1046 49 992 -71 1046 -18 l 1046 126 b 926 246 1046 192 992 246 l 607 246 l 597 135 l 907 135 b 935 108 922 135 935 124 l 935 67 b 907 39 935 51 922 39 l 717 39 b 597 -81 651 39 597 -14 l 597 -278 l 1036 -278 l 1036 -276 l 1046 -167 l 708 -167 l 708 -99 b 736 -71 708 -83 721 -71 z m 725 900 l 0 -278 l 186 -278 l 911 900 z m 56 376 l 167 376 l 167 900 l 28 900 l 14 789 l 56 789 z "},"¾":{"ha":1290,"x_min":0,"x_max":0,"o":"m 1014 900 l 828 900 l 103 -278 l 289 -278 z m 1042 246 l 1042 21 l 815 21 l 815 246 l 704 246 l 704 -89 l 1042 -89 l 1042 -278 l 1151 -278 l 1151 246 z m 447 781 b 328 900 447 846 394 900 l 10 900 l 0 789 l 310 789 b 338 761 325 789 338 776 l 338 721 b 310 693 338 706 325 693 l 153 693 l 144 583 l 310 583 b 338 556 325 583 338 571 l 338 515 b 310 488 338 500 325 488 l 10 488 l 0 376 l 328 376 b 447 496 394 376 447 431 l 447 565 b 406 639 447 589 447 625 b 447 711 444 651 447 688 z "},"¿":{"ha":1149,"x_min":0,"x_max":0,"o":"m 989 -751 l 1010 -503 l 311 -503 b 250 -440 278 -503 250 -475 l 250 -390 b 311 -329 250 -357 278 -329 l 467 -329 b 736 -60 615 -329 736 -208 l 736 8 l 488 8 l 488 -18 b 425 -81 488 -51 460 -81 l 269 -81 b 0 -350 121 -81 0 -200 l 0 -482 b 269 -751 0 -631 121 -751 z m 740 426 l 490 426 l 490 178 l 740 178 z "},"À":{"ha":1168,"x_min":0,"x_max":0,"o":"m 269 901 b 0 632 119 901 0 781 l 0 -278 l 249 -278 l 249 107 l 781 107 l 781 -278 l 1029 -278 l 1029 632 b 760 901 1029 781 908 901 z m 249 356 l 249 590 b 310 653 249 625 276 653 l 718 653 b 781 590 753 653 781 625 l 781 356 z m 419 1406 l 304 1297 l 590 993 l 707 1101 z "},"Á":{"ha":1168,"x_min":0,"x_max":0,"o":"m 269 901 b 0 632 119 901 0 781 l 0 -278 l 249 -278 l 249 107 l 781 107 l 781 -278 l 1029 -278 l 1029 632 b 760 901 1029 781 908 901 z m 249 356 l 249 590 b 310 653 249 625 276 653 l 718 653 b 781 590 753 653 781 625 l 781 356 z m 560 1414 l 274 1110 l 389 1001 l 676 1306 z "},"Â":{"ha":1168,"x_min":0,"x_max":0,"o":"m 269 901 b 0 632 119 901 0 781 l 0 -278 l 249 -278 l 249 107 l 781 107 l 781 -278 l 1029 -278 l 1029 632 b 760 901 1029 781 908 901 z m 249 356 l 249 590 b 310 653 249 625 276 653 l 718 653 b 781 590 753 653 781 625 l 781 356 z m 804 1106 l 539 1388 l 272 1106 l 388 997 l 538 1157 l 689 997 z "},"Ã":{"ha":1168,"x_min":0,"x_max":0,"o":"m 269 901 b 0 632 119 901 0 781 l 0 -278 l 249 -278 l 249 107 l 781 107 l 781 -278 l 1029 -278 l 1029 632 b 760 901 1029 781 908 901 z m 249 356 l 249 590 b 310 653 249 625 276 653 l 718 653 b 781 590 753 653 781 625 l 781 356 z m 606 1011 b 783 1167 694 1011 767 1074 l 643 1192 b 606 1154 639 1168 625 1154 b 565 1174 593 1154 586 1157 b 440 1221 540 1192 501 1221 b 260 1074 329 1221 274 1125 l 396 1036 b 440 1078 396 1036 410 1078 b 481 1058 453 1078 460 1075 b 606 1011 507 1040 544 1011 z "},"Ä":{"ha":1168,"x_min":0,"x_max":0,"o":"m 269 901 b 0 632 119 901 0 781 l 0 -278 l 249 -278 l 249 107 l 781 107 l 781 -278 l 1029 -278 l 1029 632 b 760 901 1029 781 908 901 z m 249 356 l 249 590 b 310 653 249 625 276 653 l 718 653 b 781 590 753 653 781 625 l 781 356 z m 369 1160 b 310 1100 336 1160 310 1133 l 310 1058 b 369 1000 310 1026 336 1000 l 411 1000 b 469 1058 443 1000 469 1026 l 469 1100 b 411 1160 469 1133 443 1160 z m 596 1160 b 536 1100 563 1160 536 1133 l 536 1058 b 596 1000 536 1026 563 1000 l 638 1000 b 696 1058 669 1000 696 1026 l 696 1100 b 638 1160 696 1133 669 1160 z "},"Å":{"ha":1168,"x_min":0,"x_max":0,"o":"m 269 901 b 0 632 119 901 0 781 l 0 -278 l 249 -278 l 249 107 l 781 107 l 781 -278 l 1029 -278 l 1029 632 b 760 901 1029 781 908 901 z m 249 356 l 249 590 b 310 653 249 625 276 653 l 718 653 b 781 590 753 653 781 625 l 781 356 z m 519 992 l 553 992 b 744 1183 658 992 744 1078 l 744 1217 b 553 1407 744 1322 658 1407 l 519 1407 b 328 1217 414 1407 328 1322 l 328 1183 b 519 992 328 1078 414 992 z m 519 1263 l 553 1263 b 600 1217 578 1263 600 1242 l 600 1183 b 553 1136 600 1157 578 1136 l 519 1136 b 472 1183 493 1136 472 1157 l 472 1217 b 519 1263 472 1242 493 1263 z "},"Æ":{"ha":1833,"x_min":0,"x_max":0,"o":"m 801 899 b 760 901 788 900 774 901 l 269 901 b 79 822 194 901 131 875 b 0 632 26 769 0 706 l 0 -278 l 249 -278 l 249 107 l 781 107 l 781 -278 l 1674 -278 l 1694 -29 l 1029 -29 l 1029 188 l 1674 188 l 1694 436 l 1029 436 l 1029 632 b 1028 653 1029 639 1029 646 l 1674 653 l 1694 901 l 801 901 z m 781 590 l 781 356 l 249 356 l 249 590 b 267 635 249 607 254 622 b 310 653 279 647 293 653 l 718 653 b 763 635 736 653 750 647 b 781 590 775 622 781 607 z "},"Ç":{"ha":1149,"x_min":0,"x_max":0,"o":"m 501 -278 l 501 -417 l 622 -417 b 631 -419 625 -417 628 -418 b 633 -428 632 -422 633 -425 l 633 -451 b 631 -458 633 -454 632 -457 b 622 -462 628 -461 625 -462 l 444 -462 l 444 -557 l 650 -557 b 706 -533 671 -557 690 -549 b 728 -479 721 -518 728 -500 l 728 -401 b 706 -344 728 -379 721 -360 b 650 -322 690 -329 671 -322 l 608 -322 l 608 -278 l 978 -278 l 999 -29 l 311 -29 b 267 -11 293 -29 279 -24 b 249 33 254 1 249 15 l 249 590 b 267 635 249 608 254 622 b 311 653 279 647 293 653 l 699 653 b 743 635 717 653 731 647 b 761 590 756 622 761 608 l 761 390 l 1010 411 l 1010 632 b 931 822 1010 706 983 769 b 740 901 878 875 814 901 l 269 901 b 79 822 196 901 132 875 b 0 632 26 769 0 706 l 0 -8 b 79 -199 0 -82 26 -146 b 269 -278 132 -251 196 -278 z "},"È":{"ha":1053,"x_min":0,"x_max":0,"o":"m 914 901 l 21 901 l 0 653 l 893 653 z m 249 188 l 893 188 l 914 436 l 0 436 l 0 -278 l 893 -278 l 914 -29 l 249 -29 z m 381 1396 l 265 1288 l 551 983 l 668 1092 z "},"É":{"ha":1053,"x_min":0,"x_max":0,"o":"m 914 901 l 21 901 l 0 653 l 893 653 z m 249 188 l 893 188 l 914 436 l 0 436 l 0 -278 l 893 -278 l 914 -29 l 249 -29 z m 525 1376 l 239 1072 l 354 964 l 642 1268 z "},"Ê":{"ha":1053,"x_min":0,"x_max":0,"o":"m 914 901 l 21 901 l 0 653 l 893 653 z m 249 188 l 893 188 l 914 436 l 0 436 l 0 -278 l 893 -278 l 914 -29 l 249 -29 z m 754 1076 l 489 1358 l 222 1076 l 338 968 l 488 1128 l 639 968 z "},"Ë":{"ha":1053,"x_min":0,"x_max":0,"o":"m 914 901 l 21 901 l 0 653 l 893 653 z m 249 188 l 893 188 l 914 436 l 0 436 l 0 -278 l 893 -278 l 914 -29 l 249 -29 z m 356 1146 b 296 1086 322 1146 296 1119 l 296 1044 b 356 986 296 1013 322 986 l 397 986 b 456 1044 429 986 456 1013 l 456 1086 b 397 1146 456 1119 429 1146 z m 582 1146 b 522 1086 549 1146 522 1119 l 522 1044 b 582 986 522 1013 549 986 l 624 986 b 682 1044 656 986 682 1013 l 682 1086 b 624 1146 682 1119 656 1146 z "},"Ì":{"ha":388,"x_min":0,"x_max":0,"o":"m 249 -278 l 249 901 l 0 901 l 0 -278 z m 90 1399 l -25 1290 l 261 986 l 378 1094 z "},"Í":{"ha":388,"x_min":0,"x_max":0,"o":"m 249 -278 l 249 901 l 0 901 l 0 -278 z m 160 1399 l -126 1094 l -11 986 l 276 1290 z "},"Î":{"ha":388,"x_min":0,"x_max":0,"o":"m 249 -278 l 249 901 l 0 901 l 0 -278 z m 389 1083 l 124 1365 l -143 1083 l -28 975 l 122 1135 l 274 975 z "},"Ï":{"ha":388,"x_min":0,"x_max":0,"o":"m 249 -278 l 249 901 l 0 901 l 0 -278 z m -21 1139 b -81 1079 -54 1139 -81 1113 l -81 1038 b -21 979 -81 1006 -54 979 l 21 979 b 79 1038 53 979 79 1006 l 79 1079 b 21 1139 79 1113 53 1139 z m 206 1139 b 146 1079 172 1139 146 1113 l 146 1038 b 206 979 146 1006 172 979 l 247 979 b 306 1038 279 979 306 1006 l 306 1079 b 247 1139 306 1113 279 1139 z "},"Ð":{"ha":1179,"x_min":0,"x_max":0,"o":"m 249 231 l 467 231 l 467 390 l 249 390 l 249 653 l 729 653 b 774 635 747 653 761 647 b 792 590 786 622 792 608 l 792 33 b 774 -11 792 15 786 1 b 729 -29 761 -24 747 -29 l 249 -29 z m 0 390 l -207 390 l -207 231 l 0 231 l 0 -278 l 771 -278 b 963 -199 846 -278 910 -251 b 1040 -8 1014 -146 1040 -82 l 1040 632 b 963 824 1040 707 1014 771 b 771 901 910 875 846 901 l 0 901 z "},"Ñ":{"ha":1168,"x_min":0,"x_max":0,"o":"m 781 900 l 781 689 b 218 900 639 850 426 900 l 0 900 l 0 -278 l 249 -278 l 249 651 l 281 651 b 781 106 568 651 781 414 l 781 -278 l 1029 -278 l 1029 900 z m 588 972 b 765 1128 676 972 749 1035 l 625 1153 b 588 1115 621 1129 607 1115 b 547 1135 575 1115 568 1118 b 422 1182 522 1153 483 1182 b 242 1035 311 1182 256 1086 l 378 997 b 422 1039 378 997 392 1039 b 463 1019 435 1039 442 1036 b 588 972 489 1001 526 972 z "},"Ò":{"ha":1189,"x_min":0,"x_max":0,"o":"m 0 -8 b 269 -278 0 -157 121 -278 l 781 -278 b 1050 -8 929 -278 1050 -157 l 1050 632 b 781 901 1050 781 929 901 l 269 901 b 0 632 121 901 0 781 z m 311 -29 b 249 33 276 -29 249 -1 l 249 590 b 311 653 249 625 276 653 l 739 653 b 801 590 774 653 801 625 l 801 33 b 739 -29 801 -1 774 -29 z m 451 1392 l 336 1283 l 622 979 l 739 1088 z "},"Ó":{"ha":1189,"x_min":0,"x_max":0,"o":"m 0 -8 b 269 -278 0 -157 121 -278 l 781 -278 b 1050 -8 929 -278 1050 -157 l 1050 632 b 781 901 1050 781 929 901 l 269 901 b 0 632 121 901 0 781 z m 311 -29 b 249 33 276 -29 249 -1 l 249 590 b 311 653 249 625 276 653 l 739 653 b 801 590 774 653 801 625 l 801 33 b 739 -29 801 -1 774 -29 z m 571 1399 l 285 1094 l 400 986 l 688 1290 z "},"Ô":{"ha":1189,"x_min":0,"x_max":0,"o":"m 0 -8 b 269 -278 0 -157 121 -278 l 781 -278 b 1050 -8 929 -278 1050 -157 l 1050 632 b 781 901 1050 781 929 901 l 269 901 b 0 632 121 901 0 781 z m 311 -29 b 249 33 276 -29 249 -1 l 249 590 b 311 653 249 625 276 653 l 739 653 b 801 590 774 653 801 625 l 801 33 b 739 -29 801 -1 774 -29 z m 794 1081 l 529 1363 l 263 1081 l 378 972 l 528 1132 l 679 972 z "},"Õ":{"ha":1189,"x_min":0,"x_max":0,"o":"m 0 -8 b 269 -278 0 -157 121 -278 l 781 -278 b 1050 -8 929 -278 1050 -157 l 1050 632 b 781 901 1050 781 929 901 l 269 901 b 0 632 121 901 0 781 z m 311 -29 b 249 33 276 -29 249 -1 l 249 590 b 311 653 249 625 276 653 l 739 653 b 801 590 774 653 801 625 l 801 33 b 739 -29 801 -1 774 -29 z m 599 983 b 776 1139 688 983 760 1046 l 636 1164 b 599 1126 632 1140 618 1126 b 558 1146 586 1126 579 1129 b 433 1193 533 1164 494 1193 b 253 1046 322 1193 267 1097 l 389 1008 b 433 1050 389 1008 403 1050 b 474 1031 446 1050 453 1047 b 599 983 500 1013 538 983 z "},"Ö":{"ha":1189,"x_min":0,"x_max":0,"o":"m 0 -8 b 269 -278 0 -157 121 -278 l 781 -278 b 1050 -8 929 -278 1050 -157 l 1050 632 b 781 901 1050 781 929 901 l 269 901 b 0 632 121 901 0 781 z m 311 -29 b 249 33 276 -29 249 -1 l 249 590 b 311 653 249 625 276 653 l 739 653 b 801 590 774 653 801 625 l 801 33 b 739 -29 801 -1 774 -29 z m 392 1160 b 332 1100 358 1160 332 1133 l 332 1058 b 392 1000 332 1026 358 1000 l 433 1000 b 492 1058 465 1000 492 1026 l 492 1100 b 433 1160 492 1133 465 1160 z m 618 1160 b 558 1100 585 1160 558 1133 l 558 1058 b 618 1000 558 1026 585 1000 l 660 1000 b 718 1058 692 1000 718 1026 l 718 1100 b 660 1160 718 1133 692 1160 z "},"×":{"ha":729,"x_min":0,"x_max":0,"o":"m 590 493 l 478 606 l 294 424 l 113 606 l 0 493 l 182 311 l 0 128 l 113 15 l 294 199 l 478 15 l 590 128 l 407 311 z "},"Ø":{"ha":1190,"x_min":0,"x_max":0,"o":"m 606 901 l 606 1061 l 446 1061 l 446 901 l 269 901 b 0 632 121 901 0 781 l 0 -8 b 269 -278 0 -157 121 -278 l 446 -278 l 446 -437 l 606 -437 l 606 -278 l 782 -278 b 1051 -8 931 -278 1051 -157 l 1051 632 b 782 901 1051 781 931 901 z m 311 -29 b 250 33 278 -29 250 -1 l 250 590 b 311 653 250 625 278 653 l 446 653 l 446 -29 z m 803 33 b 740 -29 803 -1 775 -29 l 606 -29 l 606 653 l 740 653 b 803 590 775 653 803 625 z "},"Ù":{"ha":1168,"x_min":0,"x_max":0,"o":"m 0 900 l 0 -8 b 269 -278 0 -157 121 -278 l 760 -278 b 1029 -8 910 -278 1029 -157 l 1029 900 l 781 900 l 781 33 b 719 -29 781 -1 753 -29 l 311 -29 b 249 33 276 -29 249 -1 l 249 900 z m 432 1322 l 317 1214 l 603 910 l 719 1018 z "},"Ú":{"ha":1168,"x_min":0,"x_max":0,"o":"m 0 900 l 0 -8 b 269 -278 0 -157 121 -278 l 760 -278 b 1029 -8 910 -278 1029 -157 l 1029 900 l 781 900 l 781 33 b 719 -29 781 -1 753 -29 l 311 -29 b 249 33 276 -29 249 -1 l 249 900 z m 558 1344 l 272 1040 l 388 932 l 675 1236 z "},"Û":{"ha":1168,"x_min":0,"x_max":0,"o":"m 0 900 l 0 -8 b 269 -278 0 -157 121 -278 l 760 -278 b 1029 -8 910 -278 1029 -157 l 1029 900 l 781 900 l 781 33 b 719 -29 781 -1 753 -29 l 311 -29 b 249 33 276 -29 249 -1 l 249 900 z m 769 1047 l 504 1329 l 238 1047 l 353 939 l 503 1099 l 654 939 z "},"Ü":{"ha":1168,"x_min":0,"x_max":0,"o":"m 0 900 l 0 -8 b 269 -278 0 -157 121 -278 l 760 -278 b 1029 -8 910 -278 1029 -157 l 1029 900 l 781 900 l 781 33 b 719 -29 781 -1 753 -29 l 311 -29 b 249 33 276 -29 249 -1 l 249 900 z m 382 1101 b 322 1042 349 1101 322 1075 l 322 1000 b 382 942 322 968 349 942 l 424 942 b 482 1000 456 942 482 968 l 482 1042 b 424 1101 482 1075 456 1101 z m 608 1101 b 549 1042 575 1101 549 1075 l 549 1000 b 608 942 549 968 575 942 l 650 942 b 708 1000 682 942 708 968 l 708 1042 b 650 1101 708 1075 682 1101 z "},"Ý":{"ha":1169,"x_min":0,"x_max":0,"o":"m 782 900 l 782 497 b 719 436 782 464 754 436 l 311 436 b 249 497 278 436 249 464 l 249 900 l 0 900 l 0 457 b 269 188 0 307 121 188 l 392 188 l 392 -278 l 640 -278 l 640 188 l 761 188 b 1031 457 910 188 1031 307 l 1031 900 z m 536 1340 l 250 1036 l 365 928 l 653 1232 z "},"Þ":{"ha":1168,"x_min":0,"x_max":0,"o":"m 249 900 l 249 1040 l 0 1040 l 0 651 l 719 651 b 764 633 738 651 751 646 b 782 590 776 621 782 607 l 782 497 b 764 454 782 481 776 467 b 719 436 751 442 738 436 l 0 436 l 0 -278 l 249 -278 l 249 188 l 761 188 b 951 267 835 188 899 214 b 1031 457 1004 318 1031 382 l 1031 631 b 951 822 1031 706 1004 769 b 761 900 899 874 835 900 z "},"ß":{"ha":1189,"x_min":0,"x_max":0,"o":"m 1050 632 b 781 901 1050 781 929 901 l 269 901 b 0 632 121 901 0 781 l 0 -278 l 249 -278 l 249 590 b 311 653 249 625 276 653 l 739 653 b 801 590 774 653 801 625 l 801 499 b 749 436 801 467 778 440 l 382 436 l 382 188 l 749 188 b 801 126 779 183 801 157 l 801 33 b 739 -29 801 -1 774 -29 l 382 -29 l 382 -278 l 781 -278 b 1050 -8 929 -278 1050 -157 l 1050 154 b 954 313 1050 213 1018 286 b 1050 485 1031 344 1050 417 z "},"à":{"ha":1168,"x_min":0,"x_max":0,"o":"m 269 900 b 0 631 119 900 0 779 l 0 -278 l 249 -278 l 249 107 l 781 107 l 781 -278 l 1029 -278 l 1029 631 b 760 900 1029 779 908 900 z m 249 356 l 249 590 b 310 651 249 624 276 651 l 718 651 b 781 590 753 651 781 624 l 781 356 z m 451 1383 l 336 1275 l 622 971 l 739 1079 z "},"á":{"ha":1168,"x_min":0,"x_max":0,"o":"m 269 900 b 0 631 119 900 0 779 l 0 -278 l 249 -278 l 249 107 l 781 107 l 781 -278 l 1029 -278 l 1029 631 b 760 900 1029 779 908 900 z m 249 356 l 249 590 b 310 651 249 624 276 651 l 718 651 b 781 590 753 651 781 624 l 781 356 z m 561 1383 l 275 1079 l 390 971 l 678 1275 z "},"â":{"ha":1168,"x_min":0,"x_max":0,"o":"m 269 900 b 0 631 119 900 0 779 l 0 -278 l 249 -278 l 249 107 l 781 107 l 781 -278 l 1029 -278 l 1029 631 b 760 900 1029 779 908 900 z m 249 356 l 249 590 b 310 651 249 624 276 651 l 718 651 b 781 590 753 651 781 624 l 781 356 z m 772 1076 l 507 1358 l 240 1076 l 356 968 l 506 1128 l 657 968 z "},"ã":{"ha":1168,"x_min":0,"x_max":0,"o":"m 269 900 b 0 631 119 900 0 779 l 0 -278 l 249 -278 l 249 107 l 781 107 l 781 -278 l 1029 -278 l 1029 631 b 760 900 1029 779 908 900 z m 249 356 l 249 590 b 310 651 249 624 276 651 l 718 651 b 781 590 753 651 781 624 l 781 356 z m 569 982 b 747 1138 658 982 731 1044 l 607 1163 b 569 1125 603 1139 589 1125 b 529 1144 557 1125 550 1128 b 404 1192 504 1163 465 1192 b 224 1044 293 1192 238 1096 l 360 1007 b 404 1049 360 1007 374 1049 b 444 1029 417 1049 424 1046 b 569 982 471 1011 508 982 z "},"ä":{"ha":1168,"x_min":0,"x_max":0,"o":"m 269 900 b 0 631 119 900 0 779 l 0 -278 l 249 -278 l 249 107 l 781 107 l 781 -278 l 1029 -278 l 1029 631 b 760 900 1029 779 908 900 z m 249 356 l 249 590 b 310 651 249 624 276 651 l 718 651 b 781 590 753 651 781 624 l 781 356 z m 374 1144 b 314 1085 340 1144 314 1118 l 314 1043 b 374 985 314 1011 340 985 l 415 985 b 474 1043 447 985 474 1011 l 474 1085 b 415 1144 474 1118 447 1144 z m 600 1144 b 540 1085 567 1144 540 1118 l 540 1043 b 600 985 540 1011 567 985 l 642 985 b 700 1043 674 985 700 1011 l 700 1085 b 642 1144 700 1118 674 1144 z "},"å":{"ha":1168,"x_min":0,"x_max":0,"o":"m 269 900 b 0 631 119 900 0 779 l 0 -278 l 249 -278 l 249 107 l 781 107 l 781 -278 l 1029 -278 l 1029 631 b 760 900 1029 779 908 900 z m 249 356 l 249 590 b 310 651 249 624 276 651 l 718 651 b 781 590 753 651 781 624 l 781 356 z m 497 969 l 531 969 b 722 1161 636 969 722 1056 l 722 1194 b 531 1385 722 1300 636 1385 l 497 1385 b 306 1194 392 1385 306 1300 l 306 1161 b 497 969 306 1056 392 969 z m 497 1240 l 531 1240 b 578 1194 556 1240 578 1219 l 578 1161 b 531 1114 578 1135 556 1114 l 497 1114 b 450 1161 471 1114 450 1135 l 450 1194 b 497 1240 450 1219 471 1240 z "},"æ":{"ha":1835,"x_min":0,"x_max":0,"o":"m 249 356 l 249 590 b 267 633 249 607 254 621 b 310 651 279 646 293 651 l 718 651 b 763 633 736 651 750 646 b 781 590 775 621 781 607 l 781 356 z m 781 -278 l 1675 -278 l 1696 -29 l 1031 -29 l 1031 188 l 1675 188 l 1696 436 l 1031 436 l 1031 653 l 1675 653 l 1696 901 l 782 901 l 782 899 b 760 900 775 900 767 900 l 269 900 b 79 822 194 900 131 874 b 0 631 26 769 0 706 l 0 -278 l 249 -278 l 249 107 l 781 107 z "},"ç":{"ha":1190,"x_min":0,"x_max":0,"o":"m 442 -278 l 442 -428 l 563 -428 b 571 -431 565 -428 568 -429 b 574 -439 572 -433 574 -436 l 574 -462 b 571 -469 574 -465 572 -468 b 563 -474 568 -472 565 -474 l 385 -474 l 385 -568 l 590 -568 b 646 -544 611 -568 631 -560 b 668 -490 661 -529 668 -511 l 668 -412 b 646 -356 668 -390 661 -371 b 590 -333 631 -340 611 -333 l 549 -333 l 549 -278 l 782 -278 b 972 -199 856 -278 919 -251 b 1051 -8 1025 -147 1051 -83 l 1051 150 l 803 129 l 803 33 b 785 -11 803 15 797 1 b 740 -29 772 -24 758 -29 l 311 -29 b 268 -11 294 -29 281 -24 b 249 33 256 1 249 15 l 249 590 b 268 635 249 608 256 622 b 311 653 281 647 294 653 l 740 653 b 785 635 758 653 772 647 b 803 590 797 622 803 608 l 803 493 l 1051 514 l 1051 632 b 972 822 1051 706 1025 769 b 782 901 919 875 856 901 l 269 901 b 79 822 196 901 132 875 b 0 632 26 769 0 706 l 0 -8 b 79 -199 0 -83 26 -147 b 269 -278 132 -251 196 -278 z "},"è":{"ha":1053,"x_min":0,"x_max":0,"o":"m 249 188 l 893 188 l 914 436 l 249 436 l 249 653 l 893 653 l 914 901 l 0 901 l 0 -278 l 893 -278 l 914 -29 l 249 -29 z m 388 1371 l 272 1263 l 558 958 l 675 1067 z "},"é":{"ha":1053,"x_min":0,"x_max":0,"o":"m 249 188 l 893 188 l 914 436 l 249 436 l 249 653 l 893 653 l 914 901 l 0 901 l 0 -278 l 893 -278 l 914 -29 l 249 -29 z m 547 1392 l 261 1088 l 376 979 l 664 1283 z "},"ê":{"ha":1053,"x_min":0,"x_max":0,"o":"m 249 188 l 893 188 l 914 436 l 249 436 l 249 653 l 893 653 l 914 901 l 0 901 l 0 -278 l 893 -278 l 914 -29 l 249 -29 z m 747 1069 l 482 1351 l 215 1069 l 331 961 l 481 1121 l 632 961 z "},"ë":{"ha":1053,"x_min":0,"x_max":0,"o":"m 249 188 l 893 188 l 914 436 l 249 436 l 249 653 l 893 653 l 914 901 l 0 901 l 0 -278 l 893 -278 l 914 -29 l 249 -29 z m 335 1139 b 275 1079 301 1139 275 1113 l 275 1038 b 335 979 275 1006 301 979 l 376 979 b 435 1038 408 979 435 1006 l 435 1079 b 376 1139 435 1113 408 1139 z m 561 1139 b 501 1079 528 1139 501 1113 l 501 1038 b 561 979 501 1006 528 979 l 603 979 b 661 1038 635 979 661 1006 l 661 1079 b 603 1139 661 1113 635 1139 z "},"ì":{"ha":388,"x_min":0,"x_max":0,"o":"m 249 -278 l 249 900 l 0 900 l 0 -278 z m 58 1390 l -57 1282 l 229 978 l 346 1086 z "},"í":{"ha":388,"x_min":0,"x_max":0,"o":"m 249 -278 l 249 900 l 0 900 l 0 -278 z m 156 1388 l -131 1083 l -15 975 l 272 1279 z "},"î":{"ha":388,"x_min":0,"x_max":0,"o":"m 249 -278 l 249 900 l 0 900 l 0 -278 z m 385 1068 l 119 1350 l -147 1068 l -32 960 l 118 1119 l 269 960 z "},"ï":{"ha":388,"x_min":0,"x_max":0,"o":"m 249 -278 l 249 900 l 0 900 l 0 -278 z m -21 1138 b -81 1078 -54 1138 -81 1111 l -81 1036 b -21 978 -81 1004 -54 978 l 21 978 b 79 1036 53 978 79 1004 l 79 1078 b 21 1138 79 1111 53 1138 z m 206 1138 b 146 1078 172 1138 146 1111 l 146 1036 b 206 978 146 1004 172 978 l 247 978 b 306 1036 279 978 306 1004 l 306 1078 b 247 1138 306 1111 279 1138 z "},"ð":{"ha":1179,"x_min":0,"x_max":0,"o":"m 249 231 l 461 231 l 461 390 l 249 390 l 249 653 l 729 653 b 774 635 747 653 761 647 b 792 590 786 622 792 608 l 792 33 b 774 -11 792 15 786 1 b 729 -29 761 -24 747 -29 l 249 -29 z m 0 390 l -212 390 l -212 231 l 0 231 l 0 -278 l 771 -278 b 963 -199 846 -278 910 -251 b 1040 -8 1014 -147 1040 -83 l 1040 632 b 963 822 1040 706 1014 769 b 771 901 910 875 846 901 l 0 901 z "},"ñ":{"ha":1168,"x_min":0,"x_max":0,"o":"m 781 900 l 781 689 b 218 900 639 850 426 900 l 0 900 l 0 -278 l 249 -278 l 249 651 l 281 651 b 781 106 568 651 781 414 l 781 -278 l 1029 -278 l 1029 900 z m 599 978 b 776 1133 688 978 760 1040 l 636 1158 b 599 1121 632 1135 618 1121 b 558 1140 586 1121 579 1124 b 433 1188 533 1158 494 1188 b 253 1040 322 1188 267 1092 l 389 1003 b 433 1044 389 1003 403 1044 b 474 1025 446 1044 453 1042 b 599 978 500 1007 538 978 z "},"ò":{"ha":1189,"x_min":0,"x_max":0,"o":"m 0 -8 b 269 -278 0 -158 121 -278 l 781 -278 b 1050 -8 929 -278 1050 -158 l 1050 632 b 781 901 1050 781 929 901 l 269 901 b 0 632 121 901 0 781 z m 311 -29 b 249 32 276 -29 249 -1 l 249 590 b 311 653 249 625 276 653 l 739 653 b 801 590 774 653 801 625 l 801 32 b 739 -29 801 -1 774 -29 z m 442 1385 l 326 1276 l 613 972 l 729 1081 z "},"ó":{"ha":1189,"x_min":0,"x_max":0,"o":"m 0 -8 b 269 -278 0 -158 121 -278 l 781 -278 b 1050 -8 929 -278 1050 -158 l 1050 632 b 781 901 1050 781 929 901 l 269 901 b 0 632 121 901 0 781 z m 311 -29 b 249 32 276 -29 249 -1 l 249 590 b 311 653 249 625 276 653 l 739 653 b 801 590 774 653 801 625 l 801 32 b 739 -29 801 -1 774 -29 z m 561 1374 l 275 1069 l 390 961 l 678 1265 z "},"ô":{"ha":1189,"x_min":0,"x_max":0,"o":"m 0 -8 b 269 -278 0 -158 121 -278 l 781 -278 b 1050 -8 929 -278 1050 -158 l 1050 632 b 781 901 1050 781 929 901 l 269 901 b 0 632 121 901 0 781 z m 311 -29 b 249 32 276 -29 249 -1 l 249 590 b 311 653 249 625 276 653 l 739 653 b 801 590 774 653 801 625 l 801 32 b 739 -29 801 -1 774 -29 z m 779 1074 l 514 1356 l 247 1074 l 363 965 l 513 1125 l 664 965 z "},"õ":{"ha":1189,"x_min":0,"x_max":0,"o":"m 0 -8 b 269 -278 0 -158 121 -278 l 781 -278 b 1050 -8 929 -278 1050 -158 l 1050 632 b 781 901 1050 781 929 901 l 269 901 b 0 632 121 901 0 781 z m 311 -29 b 249 32 276 -29 249 -1 l 249 590 b 311 653 249 625 276 653 l 739 653 b 801 590 774 653 801 625 l 801 32 b 739 -29 801 -1 774 -29 z m 592 979 b 769 1135 681 979 753 1042 l 629 1160 b 592 1122 625 1136 611 1122 b 551 1142 579 1122 572 1125 b 426 1189 526 1160 488 1189 b 246 1042 315 1189 260 1093 l 382 1004 b 426 1046 382 1004 396 1046 b 467 1026 439 1046 446 1043 b 592 979 493 1008 531 979 z "},"ö":{"ha":1189,"x_min":0,"x_max":0,"o":"m 0 -8 b 269 -278 0 -158 121 -278 l 781 -278 b 1050 -8 929 -278 1050 -158 l 1050 632 b 781 901 1050 781 929 901 l 269 901 b 0 632 121 901 0 781 z m 311 -29 b 249 32 276 -29 249 -1 l 249 590 b 311 653 249 625 276 653 l 739 653 b 801 590 774 653 801 625 l 801 32 b 739 -29 801 -1 774 -29 z m 392 1143 b 332 1083 358 1143 332 1117 l 332 1042 b 392 983 332 1010 358 983 l 433 983 b 492 1042 465 983 492 1010 l 492 1083 b 433 1143 492 1117 465 1143 z m 618 1143 b 558 1083 585 1143 558 1117 l 558 1042 b 618 983 558 1010 585 983 l 660 983 b 718 1042 692 983 718 1010 l 718 1083 b 660 1143 718 1117 692 1143 z "},"÷":{"ha":813,"x_min":0,"x_max":0,"o":"m 674 390 l 0 390 l 0 231 l 674 231 z m 213 -108 l 461 -108 l 461 140 l 213 140 z m 213 729 l 213 481 l 461 481 l 461 729 z "},"ø":{"ha":1189,"x_min":0,"x_max":0,"o":"m 500 -29 l 711 653 l 739 653 b 783 635 757 653 771 647 b 801 590 796 622 801 607 l 801 32 b 783 -11 801 15 796 1 b 739 -29 771 -24 757 -29 z m 544 653 l 333 -29 l 311 -29 b 267 -11 293 -29 279 -24 b 249 32 254 1 249 15 l 249 590 b 267 635 249 607 254 622 b 311 653 279 647 293 653 z m 622 901 l 269 901 b 79 822 194 901 131 875 b 0 632 26 769 0 706 l 0 -8 b 79 -199 0 -83 26 -147 b 256 -278 128 -249 186 -275 l 222 -385 l 389 -385 l 422 -278 l 781 -278 b 972 -199 856 -278 919 -251 b 1050 -8 1024 -147 1050 -83 l 1050 632 b 972 822 1050 706 1024 769 b 789 901 921 874 860 900 l 821 1004 l 654 1004 z "},"ù":{"ha":1168,"x_min":0,"x_max":0,"o":"m 0 901 l 0 -8 b 269 -278 0 -157 121 -278 l 760 -278 b 1029 -8 910 -278 1029 -157 l 1029 901 l 781 901 l 781 33 b 719 -28 781 0 753 -28 l 311 -28 b 249 33 276 -28 249 0 l 249 901 z m 414 1346 l 299 1238 l 585 933 l 701 1042 z "},"ú":{"ha":1168,"x_min":0,"x_max":0,"o":"m 0 901 l 0 -8 b 269 -278 0 -157 121 -278 l 760 -278 b 1029 -8 910 -278 1029 -157 l 1029 901 l 781 901 l 781 33 b 719 -28 781 0 753 -28 l 311 -28 b 249 33 276 -28 249 0 l 249 901 z m 581 1360 l 294 1056 l 410 947 l 697 1251 z "},"û":{"ha":1168,"x_min":0,"x_max":0,"o":"m 0 901 l 0 -8 b 269 -278 0 -157 121 -278 l 760 -278 b 1029 -8 910 -278 1029 -157 l 1029 901 l 781 901 l 781 33 b 719 -28 781 0 753 -28 l 311 -28 b 249 33 276 -28 249 0 l 249 901 z m 774 1056 l 508 1338 l 242 1056 l 357 947 l 507 1107 l 658 947 z "},"ü":{"ha":1168,"x_min":0,"x_max":0,"o":"m 0 901 l 0 -8 b 269 -278 0 -157 121 -278 l 760 -278 b 1029 -8 910 -278 1029 -157 l 1029 901 l 781 901 l 781 33 b 719 -28 781 0 753 -28 l 311 -28 b 249 33 276 -28 249 0 l 249 901 z m 378 1114 b 318 1054 344 1114 318 1088 l 318 1013 b 378 954 318 981 344 954 l 419 954 b 478 1013 451 954 478 981 l 478 1054 b 419 1114 478 1088 451 1114 z m 604 1114 b 544 1054 571 1114 544 1088 l 544 1013 b 604 954 544 981 571 954 l 646 954 b 704 1013 678 954 704 981 l 704 1054 b 646 1114 704 1088 678 1114 z "},"ý":{"ha":1169,"x_min":0,"x_max":0,"o":"m 782 901 l 782 499 b 719 436 782 464 754 436 l 311 436 b 249 499 278 436 249 464 l 249 901 l 0 901 l 0 457 b 269 188 0 308 121 188 l 392 188 l 392 -278 l 640 -278 l 640 188 l 761 188 b 1031 457 910 188 1031 308 l 1031 901 z m 563 1331 l 276 1026 l 392 918 l 679 1222 z "},"þ":{"ha":1169,"x_min":0,"x_max":0,"o":"m 782 497 b 719 435 782 463 754 435 l 249 435 l 249 651 l 719 651 b 782 589 754 651 782 624 z m 249 900 l 249 1039 l 0 1039 l 0 -278 l 249 -278 l 249 186 l 761 186 b 951 265 835 186 899 213 b 1031 456 1004 318 1031 382 l 1031 631 b 951 822 1031 706 1004 769 b 761 900 899 874 835 900 z "},"ÿ":{"ha":1169,"x_min":0,"x_max":0,"o":"m 782 901 l 782 499 b 719 436 782 464 754 436 l 311 436 b 249 499 278 436 249 464 l 249 901 l 0 901 l 0 457 b 269 188 0 308 121 188 l 392 188 l 392 -278 l 640 -278 l 640 188 l 761 188 b 1031 457 910 188 1031 308 l 1031 901 z m 382 1088 b 322 1028 349 1088 322 1061 l 322 986 b 382 928 322 954 349 928 l 424 928 b 482 986 456 928 482 954 l 482 1028 b 424 1088 482 1061 456 1088 z m 608 1088 b 549 1028 575 1088 549 1061 l 549 986 b 608 928 549 954 575 928 l 650 928 b 708 986 682 928 708 954 l 708 1028 b 650 1088 708 1061 682 1088 z "},"ı":{"ha":388,"x_min":0,"x_max":0,"o":"m 249 -278 l 249 900 l 0 900 l 0 -278 z "},"̀":{"ha":542,"x_min":0,"x_max":0,"o":"m 115 1108 l 0 1000 l 286 696 l 403 804 z "},"́":{"ha":542,"x_min":0,"x_max":0,"o":"m 286 1108 l 0 804 l 115 696 l 403 1000 z "},"̂":{"ha":671,"x_min":0,"x_max":0,"o":"m 532 815 l 267 1097 l 0 815 l 115 707 l 265 867 l 417 707 z "},"̃":{"ha":663,"x_min":0,"x_max":0,"o":"m 346 797 b 524 953 435 797 507 860 l 383 978 b 346 940 379 954 365 940 b 306 960 333 940 326 943 b 181 1007 281 978 242 1007 b 0 860 69 1007 14 911 l 136 822 b 181 864 136 822 150 864 b 221 844 193 864 200 861 b 346 797 247 826 285 797 z "},"̄":{"ha":557,"x_min":0,"x_max":0,"o":"m 418 982 l 0 982 l 0 822 l 418 822 z "},"̇":{"ha":299,"x_min":0,"x_max":0,"o":"m 60 982 b 0 922 26 982 0 956 l 0 881 b 60 822 0 849 26 822 l 101 822 b 160 881 133 822 160 849 l 160 922 b 101 982 160 956 133 982 z "},"̈":{"ha":525,"x_min":0,"x_max":0,"o":"m 60 982 b 0 922 26 982 0 956 l 0 881 b 60 822 0 849 26 822 l 101 822 b 160 881 133 822 160 849 l 160 922 b 101 982 160 956 133 982 z m 286 982 b 226 922 253 982 226 956 l 226 881 b 286 822 226 849 253 822 l 328 822 b 386 881 360 822 386 849 l 386 922 b 328 982 386 956 360 982 z "},"̊":{"ha":556,"x_min":0,"x_max":0,"o":"m 192 694 l 225 694 b 417 886 331 694 417 781 l 417 919 b 225 1110 417 1025 331 1110 l 192 1110 b 0 919 86 1110 0 1025 l 0 886 b 192 694 0 781 86 694 z m 192 965 l 225 965 b 272 919 250 965 272 944 l 272 886 b 225 839 272 860 250 839 l 192 839 b 144 886 165 839 144 860 l 144 919 b 192 965 144 944 165 965 z "},"̌":{"ha":671,"x_min":0,"x_max":0,"o":"m 0 989 l 265 707 l 532 989 l 417 1097 l 267 938 l 115 1097 z "},"̧":{"ha":422,"x_min":0,"x_max":0,"o":"m 283 -492 l 283 -414 b 206 -335 283 -369 249 -335 l 164 -335 l 164 -264 l 57 -264 l 57 -429 l 178 -429 b 189 -440 183 -429 189 -435 l 189 -464 b 178 -475 189 -469 183 -475 l 0 -475 l 0 -569 l 206 -569 b 283 -492 249 -569 283 -535 z "},"–":{"ha":813,"x_min":0,"x_max":0,"o":"m 674 390 l 0 390 l 0 231 l 674 231 z "},"—":{"ha":1113,"x_min":0,"x_max":0,"o":"m 974 390 l 0 390 l 0 231 l 974 231 z "},"‘":{"ha":388,"x_min":0,"x_max":0,"o":"m 249 436 l 249 686 l 129 686 l 129 899 l 71 899 l 0 686 l 0 436 z "},"’":{"ha":388,"x_min":0,"x_max":0,"o":"m 0 899 l 0 650 l 118 650 l 118 436 l 176 436 l 249 650 l 249 899 z "},"‚":{"ha":388,"x_min":0,"x_max":0,"o":"m 0 -29 l 0 -278 l 118 -278 l 118 -492 l 176 -492 l 249 -278 l 249 -29 z "},"“":{"ha":721,"x_min":0,"x_max":0,"o":"m 582 436 l 582 686 l 463 686 l 463 899 l 404 899 l 333 686 l 333 436 z m 249 436 l 249 686 l 129 686 l 129 899 l 71 899 l 0 686 l 0 436 z "},"”":{"ha":721,"x_min":0,"x_max":0,"o":"m 0 899 l 0 650 l 118 650 l 118 436 l 176 436 l 249 650 l 249 899 z m 333 899 l 333 650 l 451 650 l 451 436 l 510 436 l 582 650 l 582 899 z "},"„":{"ha":721,"x_min":0,"x_max":0,"o":"m 0 -29 l 0 -278 l 118 -278 l 118 -492 l 176 -492 l 249 -278 l 249 -29 z m 333 -29 l 333 -278 l 451 -278 l 451 -492 l 510 -492 l 582 -278 l 582 -29 z "},"†":{"ha":814,"x_min":0,"x_max":0,"o":"m 675 667 l 417 667 l 417 900 l 258 900 l 258 667 l 0 667 l 0 508 l 258 508 l 258 -278 l 417 -278 l 417 508 l 675 508 z "},"‡":{"ha":814,"x_min":0,"x_max":0,"o":"m 675 508 l 675 667 l 417 667 l 417 900 l 258 900 l 258 667 l 0 667 l 0 508 l 258 508 l 258 114 l 0 114 l 0 -44 l 258 -44 l 258 -278 l 417 -278 l 417 -44 l 675 -44 l 675 114 l 417 114 l 417 508 z "},"•":{"ha":494,"x_min":0,"x_max":0,"o":"m 296 619 l 1 619 l 1 325 l 296 325 z "},"…":{"ha":1389,"x_min":0,"x_max":0,"o":"m 249 -29 l 0 -29 l 0 -278 l 249 -278 z m 711 -29 l 463 -29 l 463 -278 l 711 -278 z m 1174 -29 l 925 -29 l 925 -278 l 1174 -278 z "},"‹":{"ha":754,"x_min":0,"x_max":0,"o":"m 310 314 l 615 469 l 543 611 l 0 314 l 543 15 l 615 157 z "},"›":{"ha":754,"x_min":0,"x_max":0,"o":"m 306 314 l 0 157 l 72 15 l 615 314 l 72 611 l 0 469 z "},"⁄":{"ha":674,"x_min":0,"x_max":0,"o":"m 535 900 l 368 900 l 0 -278 l 167 -278 z "},"∕":{"ha":674,"x_min":0,"x_max":0,"o":"m 535 900 l 368 900 l 0 -278 l 167 -278 z "},"₣":{"ha":1246,"x_min":0,"x_max":0,"o":"m 1086 188 l 1107 436 l 442 436 l 442 653 l 1086 653 l 1107 901 l 193 901 l 193 90 l 0 90 l 0 -69 l 193 -69 l 193 -278 l 442 -278 l 442 -69 l 749 -69 l 749 90 l 442 90 l 442 188 z "},"₤":{"ha":1215,"x_min":0,"x_max":0,"o":"m 433 -29 l 433 138 l 750 138 l 750 296 l 433 296 l 433 328 l 750 328 l 750 486 l 433 486 l 433 590 b 496 653 433 625 461 653 l 683 653 l 704 901 l 454 901 b 185 632 306 901 185 781 l 185 486 l 0 486 l 0 328 l 185 328 l 185 296 l 0 296 l 0 138 l 185 138 l 185 -278 l 1056 -278 l 1076 -29 z "},"₧":{"ha":3400,"x_min":0,"x_max":0,"o":"m 21 900 l 0 651 l 719 651 b 782 590 754 651 782 624 l 782 497 b 719 436 782 464 754 436 l 0 436 l 0 -278 l 249 -278 l 249 188 l 761 188 b 1031 457 910 188 1031 307 l 1031 631 b 761 900 1031 781 910 900 z m 2154 901 l 1144 901 l 1124 653 l 1515 653 l 1515 -278 l 1764 -278 l 1764 653 l 2133 653 z m 3219 653 l 3240 903 l 2501 903 b 2232 633 2351 903 2232 782 l 2232 458 b 2501 189 2232 310 2351 189 l 2950 189 b 3013 126 2985 189 3013 161 l 3013 33 b 2950 -28 3013 0 2985 -28 l 2272 -28 l 2251 -276 l 2251 -278 l 2992 -276 b 3261 -7 3140 -276 3261 -156 l 3261 168 b 2992 438 3261 317 3140 438 l 2542 438 b 2481 500 2508 438 2481 465 l 2481 592 b 2542 653 2481 625 2508 653 z "},"€":{"ha":1340,"x_min":0,"x_max":0,"o":"m 1201 411 l 1201 632 b 933 901 1201 781 1082 901 l 463 901 b 193 632 314 901 193 781 l 193 486 l 0 486 l 0 328 l 193 328 l 193 296 l 0 296 l 0 138 l 193 138 l 193 -8 b 463 -278 193 -157 314 -278 l 1169 -278 l 1190 -29 l 504 -29 b 442 33 469 -29 442 -1 l 442 138 l 749 138 l 749 296 l 442 296 l 442 328 l 749 328 l 749 486 l 442 486 l 442 590 b 504 653 442 625 469 653 l 892 653 b 953 590 925 653 953 625 l 953 390 z "},"№":{"ha":2153,"x_min":0,"x_max":0,"o":"m 781 900 l 781 689 b 218 900 639 850 426 900 l 0 900 l 0 -278 l 249 -278 l 249 651 l 281 651 b 781 106 568 651 781 414 l 781 -278 l 1029 -278 l 1029 900 z m 1168 168 b 1385 -49 1168 49 1265 -49 l 1797 -49 b 2014 168 1917 -49 2014 49 l 2014 683 b 1797 901 2014 804 1917 901 l 1385 901 b 1168 683 1265 901 1168 804 z m 1418 151 b 1368 201 1390 151 1368 174 l 1368 650 b 1418 700 1368 678 1390 700 l 1764 700 b 1814 650 1792 700 1814 678 l 1814 201 b 1764 151 1814 174 1792 151 z m 1863 -150 l 1319 -150 l 1319 -278 l 1863 -278 z "},"™":{"ha":1399,"x_min":0,"x_max":0,"o":"m 515 900 l 11 900 l 0 776 l 196 776 l 196 313 l 319 313 l 319 776 l 504 776 z m 1076 900 b 915 824 1018 900 953 872 b 754 900 879 868 814 900 l 572 900 l 572 311 l 696 311 l 696 776 l 753 776 b 854 675 808 776 854 731 l 854 311 l 978 311 l 978 675 b 1079 776 978 731 1024 776 l 1135 776 l 1135 311 l 1260 311 l 1260 900 z "},"−":{"ha":813,"x_min":0,"x_max":0,"o":"m 674 390 l 0 390 l 0 231 l 674 231 z "},"≈":{"ha":663,"x_min":0,"x_max":0,"o":"m 346 94 b 524 250 435 94 507 157 l 383 275 b 346 238 379 251 365 238 b 306 257 333 238 326 240 b 181 304 281 275 242 304 b 0 157 69 304 14 208 l 136 119 b 181 161 136 119 150 161 b 221 142 193 161 200 158 b 346 94 247 124 285 94 z m 346 317 b 524 472 435 317 507 379 l 383 497 b 346 460 379 474 365 460 b 306 479 333 460 326 463 b 181 526 281 497 242 526 b 0 379 69 526 14 431 l 136 342 b 181 383 136 342 150 383 b 221 364 193 383 200 381 b 346 317 247 346 285 317 z "},"≤":{"ha":754,"x_min":0,"x_max":0,"o":"m 614 6 l 3 6 l 3 -154 l 614 -154 z m 310 400 l 615 556 l 543 697 l 0 400 l 543 101 l 615 243 z "},"≥":{"ha":754,"x_min":0,"x_max":0,"o":"m 614 6 l 3 6 l 3 -154 l 614 -154 z m 306 400 l 0 243 l 74 101 l 615 400 l 74 697 l 0 556 z "},"ﬁ":{"ha":1440,"x_min":0,"x_max":0,"o":"m 249 436 l 249 653 l 893 653 l 914 901 l 0 901 l 0 -278 l 249 -278 l 249 188 l 893 188 l 914 436 z m 1301 -278 l 1301 900 l 1053 900 l 1053 -278 z "},"ﬂ":{"ha":2083,"x_min":0,"x_max":0,"o":"m 249 436 l 249 653 l 893 653 l 914 901 l 0 901 l 0 -278 l 249 -278 l 249 188 l 893 188 l 914 436 z m 1301 -29 l 1301 901 l 1053 901 l 1053 -278 l 1924 -278 l 1944 -29 z "},"Œ":{"ha":1854,"x_min":0,"x_max":0,"o":"m 822 899 b 781 901 808 900 794 901 l 269 901 b 79 822 194 901 131 875 b 0 632 26 769 0 706 l 0 -8 b 79 -199 0 -83 26 -147 b 269 -278 131 -251 194 -278 l 1694 -278 l 1715 -29 l 1050 -29 l 1050 188 l 1694 188 l 1715 436 l 1050 436 l 1050 632 b 1049 653 1050 639 1050 646 l 1694 653 l 1715 901 l 822 901 z m 801 590 l 801 33 b 783 -11 801 15 796 1 b 739 -29 771 -24 757 -29 l 311 -29 b 267 -11 293 -29 279 -24 b 249 33 254 1 249 15 l 249 590 b 267 635 249 608 254 622 b 311 653 279 647 293 653 l 739 653 b 783 635 757 653 771 647 b 801 590 796 622 801 608 z "},"œ":{"ha":1854,"x_min":0,"x_max":0,"o":"m 269 -278 l 1694 -278 l 1715 -29 l 1050 -29 l 1050 188 l 1694 188 l 1715 436 l 1050 436 l 1050 653 l 1694 653 l 1715 901 l 801 901 l 801 900 b 781 901 794 901 788 901 l 269 901 b 79 822 194 901 131 875 b 0 632 26 769 0 706 l 0 -8 b 79 -199 0 -83 26 -147 b 269 -278 131 -251 194 -278 z m 801 590 l 801 32 b 783 -11 801 15 796 1 b 739 -29 771 -24 757 -29 l 311 -29 b 267 -11 293 -29 279 -24 b 249 32 254 1 249 15 l 249 590 b 267 635 249 607 254 622 b 311 653 279 647 293 653 l 739 653 b 783 635 757 653 771 647 b 801 590 796 622 801 607 z "},"Š":{"ha":1168,"x_min":0,"x_max":0,"o":"m 988 653 l 1008 901 l 269 901 b 0 632 119 901 0 781 l 0 457 b 269 188 0 308 119 188 l 718 188 b 781 125 753 188 781 160 l 781 33 b 718 -29 781 -1 753 -29 l 40 -29 l 19 -278 l 760 -278 b 1029 -8 908 -278 1029 -157 l 1029 167 b 760 436 1029 315 908 436 l 310 436 b 249 499 276 436 249 464 l 249 590 b 310 653 249 625 276 653 z m 272 1261 l 538 979 l 804 1261 l 689 1369 l 539 1210 l 388 1369 z "},"š":{"ha":1168,"x_min":0,"x_max":0,"o":"m 988 653 l 1008 903 l 269 903 b 0 633 119 903 0 782 l 0 458 b 269 189 0 310 119 189 l 718 189 b 781 126 753 189 781 161 l 781 33 b 718 -28 781 0 753 -28 l 40 -28 l 19 -276 l 19 -278 l 760 -276 b 1029 -7 908 -276 1029 -156 l 1029 168 b 760 438 1029 317 908 438 l 310 438 b 249 500 276 438 249 465 l 249 592 b 310 653 249 625 276 653 z m 276 1244 l 542 963 l 808 1244 l 693 1353 l 543 1193 l 392 1353 z "},"Ÿ":{"ha":1169,"x_min":0,"x_max":0,"o":"m 782 900 l 782 497 b 719 436 782 464 754 436 l 311 436 b 249 497 278 436 249 464 l 249 900 l 0 900 l 0 457 b 269 188 0 307 121 188 l 392 188 l 392 -278 l 640 -278 l 640 188 l 761 188 b 1031 457 910 188 1031 307 l 1031 900 z m 389 1121 b 329 1061 356 1121 329 1094 l 329 1019 b 389 961 329 988 356 961 l 431 961 b 489 1019 463 961 489 988 l 489 1061 b 431 1121 489 1094 463 1121 z m 615 1121 b 556 1061 582 1121 556 1094 l 556 1019 b 615 961 556 988 582 961 l 657 961 b 715 1019 689 961 715 988 l 715 1061 b 657 1121 715 1094 689 1121 z "},"ž":{"ha":1179,"x_min":0,"x_max":0,"o":"m 1040 903 l 31 903 l 10 654 l 792 654 b 642 476 792 567 728 492 l 350 422 b 0 4 147 386 0 210 l 0 -278 l 1008 -278 l 1029 -28 l 249 -28 l 249 0 b 397 178 249 88 311 163 l 690 232 b 1040 650 892 268 1040 444 z m 271 1253 l 536 971 l 803 1253 l 688 1361 l 538 1201 l 386 1361 z "},"‰":{"ha":1813,"x_min":0,"x_max":0,"o":"m 840 900 l 115 -278 l 303 -278 l 1028 900 z m 329 376 b 449 496 394 376 449 431 l 449 781 b 329 900 449 846 394 900 l 119 900 b 0 781 54 900 0 846 l 0 496 b 119 376 0 431 54 376 z m 111 763 b 139 790 111 778 124 790 l 310 790 b 338 763 325 790 338 778 l 338 515 b 310 488 338 500 325 488 l 139 488 b 111 515 124 488 111 500 z m 811 246 b 692 126 744 246 692 192 l 692 -158 b 811 -278 692 -224 744 -278 l 1019 -278 b 1139 -158 1085 -278 1139 -224 l 1139 126 b 1019 246 1139 192 1085 246 z m 1028 -139 b 1001 -167 1028 -154 1015 -167 l 829 -167 b 801 -139 814 -167 801 -154 l 801 108 b 829 136 801 124 814 136 l 1001 136 b 1028 108 1015 136 1028 124 z m 1346 246 b 1226 126 1279 246 1226 192 l 1226 -158 b 1346 -278 1226 -224 1279 -278 l 1554 -278 b 1674 -158 1619 -278 1674 -224 l 1674 126 b 1554 246 1674 192 1619 246 z m 1563 -139 b 1536 -167 1563 -154 1550 -167 l 1364 -167 b 1336 -139 1349 -167 1336 -154 l 1336 108 b 1364 136 1336 124 1349 136 l 1536 136 b 1563 108 1550 136 1563 124 z "},"":{"ha":2247,"x_min":0,"x_max":0,"o":"m 249 188 l 893 188 l 913 436 l 0 436 l 0 -278 l 893 -278 l 913 -29 l 249 -29 z m 2108 631 b 1839 900 2108 781 1988 900 l 21 901 l 0 653 l 1797 651 b 1860 590 1832 651 1860 624 l 1860 497 b 1806 436 1860 467 1836 440 l 1057 436 l 1057 -278 l 1839 -278 b 2108 -8 1988 -278 2108 -157 l 2108 154 b 2011 311 2108 213 2076 286 b 2108 485 2088 343 2108 417 z m 1860 33 b 1797 -29 1860 -1 1832 -29 l 1306 -29 l 1306 188 l 1806 188 b 1860 125 1836 183 1860 157 z "},"":{"ha":2226,"x_min":0,"x_max":0,"o":"m 21 901 l 0 653 l 1776 651 b 1839 590 1811 651 1839 624 l 1839 497 b 1776 436 1839 464 1811 436 l 1057 436 l 1057 -278 l 1306 -278 l 1306 188 l 1818 188 b 2088 457 1967 188 2088 307 l 2088 631 b 1818 900 2088 781 1967 900 z m 249 188 l 893 188 l 914 436 l 0 436 l 0 -278 l 893 -278 l 914 -29 l 249 -29 z "},"":{"ha":2226,"x_min":0,"x_max":0,"o":"m 249 188 l 892 188 l 913 436 l 0 436 l 0 -278 l 892 -278 l 913 -29 l 249 -29 z m 2088 632 b 1818 901 2088 781 1967 901 l 19 901 l 0 653 l 1776 653 b 1839 590 1810 653 1839 625 l 1839 499 b 1776 436 1839 464 1810 436 l 1057 436 l 1057 -278 l 1306 -278 l 1306 185 b 1578 46 1531 185 1543 122 l 1643 -94 b 1932 -278 1696 -207 1808 -278 l 2067 -278 l 2088 -29 l 1989 -29 b 1846 63 1926 -29 1871 7 l 1838 79 b 1750 188 1824 107 1797 175 l 1818 188 b 2088 457 1967 188 2088 308 z "},"":{"ha":2225,"x_min":0,"x_max":0,"o":"m 1421 188 l 2065 188 l 2086 436 l 1172 436 l 1172 -278 l 2065 -278 l 2086 -29 l 1421 -29 z m 457 188 l 769 188 l 769 -29 l 311 -29 b 249 33 276 -29 249 -1 l 249 590 b 311 653 249 625 276 653 l 2065 653 l 2086 901 l 269 901 b 0 632 121 901 0 781 l 0 -8 b 269 -278 0 -157 121 -278 l 1018 -278 l 1018 436 l 478 436 z "},"":{"ha":2363,"x_min":0,"x_max":0,"o":"m 2224 631 b 1954 900 2224 781 2103 900 l 269 901 b 0 632 121 901 0 781 l 0 -8 b 269 -278 0 -157 121 -278 l 1019 -278 l 1019 436 l 478 436 l 457 188 l 771 188 l 771 -29 l 311 -29 b 250 33 278 -29 250 -1 l 250 590 b 311 653 250 625 278 653 l 1913 651 b 1975 590 1947 651 1975 624 l 1975 497 b 1921 436 1975 467 1951 440 l 1172 436 l 1172 -278 l 1954 -278 b 2224 -8 2103 -278 2224 -157 l 2224 154 b 2126 311 2224 213 2192 286 b 2224 485 2203 343 2224 415 z m 1975 33 b 1913 -29 1975 -1 1947 -29 l 1421 -29 l 1421 188 l 1921 188 b 1975 125 1951 182 1975 157 z "},"":{"ha":2342,"x_min":0,"x_max":0,"o":"m 269 901 b 0 632 121 901 0 781 l 0 -8 b 269 -278 0 -157 121 -278 l 1019 -278 l 1019 436 l 478 436 l 457 188 l 769 188 l 769 -29 l 311 -29 b 249 33 278 -29 249 -1 l 249 590 b 311 653 249 625 278 653 l 1892 651 b 1954 590 1925 651 1954 624 l 1954 497 b 1892 436 1954 464 1925 436 l 1172 436 l 1172 -278 l 1421 -278 l 1421 188 l 1933 188 b 2203 457 2082 188 2203 307 l 2203 631 b 1933 900 2203 781 2082 900 z "},"":{"ha":2340,"x_min":0,"x_max":0,"o":"m 2201 632 b 1932 901 2201 781 2081 901 l 269 901 b 0 632 121 901 0 781 l 0 -8 b 269 -278 0 -157 121 -278 l 1018 -278 l 1018 436 l 476 436 l 456 188 l 769 188 l 769 -29 l 311 -29 b 249 33 276 -29 249 -1 l 249 590 b 311 653 249 625 276 653 l 1890 653 b 1953 590 1925 653 1953 625 l 1953 499 b 1890 436 1953 464 1925 436 l 1171 436 l 1171 -278 l 1419 -278 l 1419 185 b 1693 46 1644 185 1657 122 l 1758 -94 b 2047 -278 1811 -207 1924 -278 l 2181 -278 l 2201 -29 l 2103 -29 b 1960 63 2042 -29 1986 6 l 1951 79 b 1864 188 1939 107 1911 175 l 1932 188 b 2201 457 2081 188 2201 308 z "},"":{"ha":2236,"x_min":0,"x_max":0,"o":"m 311 436 b 249 499 276 436 249 464 l 249 590 b 311 653 249 625 276 653 l 2076 653 l 2097 901 l 269 901 b 0 632 121 901 0 781 l 0 457 b 269 188 0 308 121 188 l 719 188 b 781 125 753 188 781 160 l 781 33 b 719 -29 781 -1 753 -29 l 42 -29 l 21 -278 l 760 -278 b 1029 -8 910 -278 1029 -157 l 1029 167 b 760 436 1029 315 910 436 z m 1432 188 l 2076 188 l 2097 436 l 1183 436 l 1183 -278 l 2076 -278 l 2097 -29 l 1432 -29 z "},"":{"ha":2372,"x_min":0,"x_max":0,"o":"m 2233 631 b 1964 900 2233 779 2113 900 l 269 901 b 0 632 119 901 0 781 l 0 457 b 269 188 0 308 119 188 l 718 188 b 781 125 753 188 781 160 l 781 33 b 718 -29 781 -1 753 -29 l 40 -29 l 21 -278 l 760 -278 b 1029 -8 910 -278 1029 -157 l 1029 167 b 760 436 1029 315 908 436 l 310 436 b 249 499 276 436 249 464 l 249 590 b 310 653 249 625 276 653 l 1922 651 b 1985 590 1957 651 1985 624 l 1985 497 b 1932 436 1985 467 1961 440 l 1183 436 l 1183 -278 l 1964 -278 b 2233 -8 2113 -278 2233 -157 l 2233 154 b 2138 311 2233 213 2201 286 b 2233 485 2214 343 2233 415 z m 1985 33 b 1922 -29 1985 -1 1957 -29 l 1432 -29 l 1432 188 l 1932 188 b 1985 125 1963 182 1985 157 z "},"":{"ha":2353,"x_min":0,"x_max":0,"o":"m 269 901 b 0 632 121 901 0 781 l 0 457 b 269 188 0 308 121 188 l 719 188 b 782 125 754 188 782 160 l 782 33 b 719 -29 782 -1 754 -29 l 42 -29 l 21 -278 l 761 -278 b 1031 -8 910 -278 1031 -157 l 1031 167 b 761 436 1031 315 910 436 l 311 436 b 249 499 276 436 249 464 l 249 590 b 311 653 249 625 276 653 l 1903 651 b 1965 590 1938 651 1965 624 l 1965 497 b 1903 436 1965 464 1938 436 l 1183 436 l 1183 -278 l 1432 -278 l 1432 188 l 1944 188 b 2214 456 2093 188 2214 307 l 2214 631 b 1944 900 2214 779 2093 900 z "},"":{"ha":2353,"x_min":0,"x_max":0,"o":"m 2214 632 b 1944 901 2214 781 2093 901 l 269 901 b 0 632 121 901 0 781 l 0 457 b 269 188 0 308 121 188 l 719 188 b 782 125 754 188 782 160 l 782 33 b 719 -29 782 -1 754 -29 l 42 -29 l 21 -278 l 761 -278 b 1031 -8 910 -278 1031 -157 l 1031 167 b 761 436 1031 315 910 436 l 311 436 b 249 499 276 436 249 464 l 249 590 b 311 653 249 625 276 653 l 1903 653 b 1965 590 1938 653 1965 625 l 1965 499 b 1903 436 1965 464 1938 436 l 1183 436 l 1183 -278 l 1432 -278 l 1432 185 b 1706 46 1657 185 1669 122 l 1771 -94 b 2060 -278 1822 -207 1935 -278 l 2193 -278 l 2214 -29 l 2115 -29 b 1972 63 2054 -29 1999 6 l 1964 78 b 1876 188 1951 107 1924 175 l 1944 188 b 2214 457 2093 188 2214 308 z "},"":{"ha":1846,"x_min":0,"x_max":0,"o":"m 1686 653 l 1707 901 l 21 900 l 0 651 l 392 651 l 392 -278 l 640 -278 l 640 651 z m 1042 188 l 1686 188 l 1707 436 l 793 436 l 793 -278 l 1686 -278 l 1707 -29 l 1042 -29 z "},"":{"ha":1983,"x_min":0,"x_max":0,"o":"m 1844 631 b 1575 900 1844 781 1724 900 l 21 900 l 0 651 l 392 651 l 392 -278 l 640 -278 l 640 651 l 1533 651 b 1596 590 1568 651 1596 624 l 1596 497 b 1542 436 1596 467 1572 440 l 793 436 l 793 -278 l 1575 -278 b 1844 -8 1724 -278 1844 -157 l 1844 154 b 1747 311 1844 213 1813 286 b 1844 485 1824 343 1844 417 z m 1596 33 b 1533 -29 1596 -1 1568 -29 l 1042 -29 l 1042 188 l 1542 188 b 1596 125 1572 183 1596 157 z "},"":{"ha":1961,"x_min":0,"x_max":0,"o":"m 21 900 l 0 651 l 390 651 l 390 -278 l 639 -278 l 639 651 l 1513 651 b 1574 590 1546 651 1574 624 l 1574 497 b 1513 436 1574 464 1546 436 l 793 436 l 793 -278 l 1042 -278 l 1042 188 l 1553 188 b 1822 457 1703 188 1822 307 l 1822 631 b 1553 900 1822 781 1703 900 z "},"":{"ha":1963,"x_min":0,"x_max":0,"o":"m 1824 632 b 1554 901 1824 781 1703 901 l 21 900 l 0 651 l 392 651 l 392 -278 l 640 -278 l 640 651 l 1513 653 b 1575 590 1547 653 1575 625 l 1575 499 b 1513 436 1575 464 1547 436 l 793 436 l 793 -278 l 1042 -278 l 1042 185 b 1314 46 1267 185 1279 122 l 1381 -94 b 1668 -278 1432 -207 1544 -278 l 1803 -278 l 1824 -29 l 1725 -29 b 1582 63 1664 -29 1607 7 l 1574 79 b 1486 188 1560 107 1533 175 l 1554 188 b 1824 457 1703 188 1824 308 z "},"":{"ha":1571,"x_min":0,"x_max":0,"o":"m 21 900 l 0 651 l 390 651 l 390 -278 l 639 -278 l 639 651 l 792 651 l 792 -278 l 1042 -278 l 1042 651 l 1411 651 l 1432 900 z "},"":{"ha":1168,"x_min":0,"x_max":0,"o":"m 269 900 b 0 631 121 900 0 781 l 0 -278 l 249 -278 l 249 107 l 782 107 l 782 -506 l 1031 -485 l 1031 631 b 761 900 1031 781 910 900 z m 249 356 l 249 590 b 311 651 249 624 276 651 l 719 651 b 782 590 754 651 782 624 l 782 356 z "},"":{"ha":1053,"x_min":0,"x_max":0,"o":"m 914 901 l 21 901 l 0 653 l 893 653 z m 249 188 l 893 188 l 914 436 l 0 436 l 0 -506 l 249 -485 z "},"":{"ha":1149,"x_min":0,"x_max":0,"o":"m 249 900 l 0 900 l 0 -278 l 249 -278 l 249 186 l 760 186 l 760 -278 l 1008 -278 l 1008 1128 l 760 1107 l 760 435 l 249 435 z "},"":{"ha":388,"x_min":0,"x_max":0,"o":"m 249 -485 l 249 900 l 0 900 l 0 -506 z "},"":{"ha":908,"x_min":0,"x_max":0,"o":"m 521 1108 l 521 32 b 458 -31 521 -3 493 -31 l 21 -31 l 0 -279 l 500 -278 b 769 -8 649 -278 769 -157 l 769 1129 z "},"":{"ha":1515,"x_min":0,"x_max":0,"o":"m 1011 900 b 689 746 893 900 764 843 b 365 900 615 838 483 900 l 0 900 l 0 -278 l 249 -278 l 249 651 l 363 651 b 564 450 474 651 564 561 l 564 -278 l 813 -278 l 813 450 b 1015 651 813 561 904 651 l 1128 651 l 1128 -506 l 1376 -485 l 1376 900 z "},"":{"ha":1168,"x_min":0,"x_max":0,"o":"m 782 901 l 782 690 b 218 901 639 851 428 901 l 0 901 l 0 -278 l 249 -278 l 249 653 l 282 653 b 782 107 569 653 782 415 l 782 -506 l 1031 -485 l 1031 901 z "},"":{"ha":1168,"x_min":0,"x_max":0,"o":"m 21 901 l 0 653 l 719 653 b 781 590 753 653 781 625 l 781 499 b 719 436 781 464 753 436 l 0 436 l 0 -506 l 249 -485 l 249 188 l 760 188 b 1029 457 910 188 1029 308 l 1029 632 b 760 901 1029 781 910 901 z "},"":{"ha":1168,"x_min":0,"x_max":0,"o":"m 1029 632 b 760 901 1029 781 908 901 l 21 901 l 0 653 l 718 653 b 781 590 753 653 781 625 l 781 499 b 718 436 781 464 753 436 l 0 436 l 0 -506 l 249 -485 l 249 186 b 521 46 472 186 485 122 l 586 -94 b 875 -278 639 -206 751 -278 l 1008 -278 l 1029 -29 l 931 -29 b 788 63 869 -29 814 7 l 781 79 b 693 188 767 108 740 175 l 760 188 b 1029 457 908 188 1029 308 z "},"":{"ha":1169,"x_min":0,"x_max":0,"o":"m 1031 901 l 21 901 l 0 653 l 392 653 l 392 -506 l 640 -485 l 640 653 l 1010 653 z "},"":{"ha":1168,"x_min":0,"x_max":0,"o":"m 0 901 l 0 -8 b 269 -278 0 -157 121 -278 l 760 -278 b 1029 -8 910 -278 1029 -157 l 1029 1129 l 781 1108 l 781 33 b 719 -29 781 -1 753 -29 l 311 -29 b 249 33 276 -29 249 -1 l 249 901 z "},"":{"ha":1169,"x_min":0,"x_max":0,"o":"m 0 -278 l 410 -278 b 1029 342 753 -278 1029 0 l 1029 1129 l 781 1108 l 781 379 b 374 -29 781 154 599 -29 l 249 -29 l 249 901 l 0 901 z "},"":{"ha":1514,"x_min":0,"x_max":0,"o":"m 1011 -278 l 1376 -278 l 1376 1118 l 1128 1099 l 1128 -29 l 1014 -29 b 813 174 903 -29 813 61 l 813 901 l 564 901 l 564 174 b 361 -29 564 61 472 -29 l 249 -29 l 249 901 l 0 901 l 0 -278 l 365 -278 b 688 -124 483 -278 614 -214 b 1011 -278 763 -219 893 -278 z "},"":{"ha":1158,"x_min":0,"x_max":0,"o":"m 1019 -278 l 1019 125 b 915 311 1019 179 1007 276 b 1019 499 1019 351 1019 444 l 1019 1129 l 771 1108 l 771 499 b 708 436 771 464 743 436 l 311 436 b 249 499 276 436 249 464 l 249 901 l 0 901 l 0 499 b 104 311 0 444 7 350 b 0 125 29 271 0 179 l 0 -278 l 249 -278 l 249 125 b 311 188 249 160 276 188 l 708 188 b 771 125 743 188 771 160 l 771 -278 z "},"":{"ha":1169,"x_min":0,"x_max":0,"o":"m 781 1108 l 781 499 b 719 436 781 464 753 436 l 311 436 b 249 499 276 436 249 464 l 249 901 l 0 901 l 0 457 b 269 188 0 308 121 188 l 390 188 l 390 -278 l 639 -278 l 639 188 l 760 188 b 1029 457 910 188 1029 308 l 1029 1129 z "},"":{"ha":1149,"x_min":0,"x_max":0,"o":"m 760 900 l 760 436 l 249 436 l 249 900 l 0 900 l 0 -278 l 249 -278 l 249 188 l 760 188 l 760 -506 l 1008 -485 l 1008 900 z "},"":{"ha":1158,"x_min":0,"x_max":0,"o":"m 1019 901 l 771 901 l 771 499 b 708 436 771 464 743 436 l 311 436 b 249 499 276 436 249 464 l 249 901 l 0 901 l 0 499 b 104 313 0 444 29 353 b 0 125 7 274 0 179 l 0 -278 l 249 -278 l 249 125 b 311 188 249 160 276 188 l 708 188 b 771 125 743 188 771 160 l 771 -506 l 1019 -485 l 1019 125 b 915 313 1019 179 1019 272 b 1019 499 1007 347 1019 444 z "},"":{"ha":1169,"x_min":0,"x_max":0,"o":"m 781 901 l 781 499 b 719 436 781 464 753 436 l 311 436 b 249 499 276 436 249 464 l 249 901 l 0 901 l 0 457 b 269 188 0 308 121 188 l 390 188 l 390 -506 l 639 -485 l 639 188 l 761 188 b 1031 457 910 188 1031 308 l 1031 901 z "}}}
